<?xml version="1.0" encoding="UTF-8" standalone="no"?>
<!DOCTYPE svg PUBLIC "-//W3C//DTD SVG 1.1//EN" "http://www.w3.org/Graphics/SVG/1.1/DTD/svg11.dtd">
<svg width="100%" height="100%" viewBox="0 0 3544 3544" version="1.1" xmlns="http://www.w3.org/2000/svg" xmlns:xlink="http://www.w3.org/1999/xlink" xml:space="preserve" xmlns:serif="http://www.serif.com/" style="fill-rule:evenodd;clip-rule:evenodd;stroke-linecap:round;stroke-miterlimit:1;">
    <g transform="matrix(1.04379,0,0,1.04379,45.6972,185.919)">
        <g transform="matrix(0.958045,0,0,0.958045,-43.78,-189.996)">
            <rect x="0" y="0" width="3543.31" height="3543.31" style="fill:white;"/>
        </g>
        <g transform="matrix(0.920411,0,0,1.04751,123.748,440.524)">
            <rect x="558.115" y="60" width="1243.88" height="2420.32" style="fill:white;fill-opacity:0;stroke:rgb(136,136,136);stroke-width:13.8px;"/>
        </g>
        <g transform="matrix(1.37891,0,0,1.37891,-764.949,204.671)">
            <g transform="matrix(1.63431,0,0,6.04199,10.7329,-603.145)">
                <rect x="377.89" y="232.211" width="202.637" height="202.637" style="fill:rgb(235,235,235);stroke:black;stroke-width:0.72px;stroke-linejoin:round;stroke-miterlimit:1.5;"/>
            </g>
            <g transform="matrix(1,0,0,1,3.30226,35.4826)">
                <g transform="matrix(60.434,0,0,60.434,923.576,1391.11)">
                </g>
                <text x="655.017px" y="1391.11px" style="font-family:'TimesNewRomanPS-BoldMT', 'Times New Roman', serif;font-weight:700;font-size:60.434px;">Sequencer</text>
            </g>
        </g>
        <g transform="matrix(1.37891,0,0,1.37891,1882.57,204.671)">
            <g transform="matrix(1.63431,0,0,6.04199,10.7329,-603.145)">
                <rect x="377.89" y="232.211" width="202.637" height="202.637" style="fill:rgb(235,235,235);stroke:black;stroke-width:0.72px;stroke-linejoin:round;stroke-miterlimit:1.5;"/>
            </g>
            <g transform="matrix(1,0,0,1,3.30226,35.4826)">
                <g transform="matrix(60.434,0,0,60.434,868.144,1391.11)">
                </g>
                <text x="710.449px" y="1391.11px" style="font-family:'TimesNewRomanPS-BoldMT', 'Times New Roman', serif;font-weight:700;font-size:60.434px;">Mixer</text>
            </g>
        </g>
        <g transform="matrix(1.37891,0,0,0.477199,-764.949,1764.64)">
            <g transform="matrix(0.694782,-0,-0,2.00764,522.998,-4071.16)">
                <path d="M1340.53,2754.3L1308.57,2818.22L1276.61,2754.3L1308.57,2786.26L1340.53,2754.3Z"/>
                <path d="M847.479,2391.94L848.708,2742.15L1308.57,2746.44L1308.57,2786.26" style="fill:none;stroke:black;stroke-width:7.1px;stroke-dasharray:7.1,14.2,0,0;"/>
            </g>
        </g>
        <g transform="matrix(1.37891,0,0,2.49318,-764.949,-715.58)">
            <g transform="matrix(0.694782,-0,-0,0.384267,522.998,215.573)">
                <path d="M1338.85,1486.08L1308.57,1550.81L1274.95,1487.74L1307.73,1518.86L1338.85,1486.08Z"/>
                <path d="M848.708,1346.2L848.708,1457.72L1306.14,1457.72C1306.14,1457.72 1307.03,1491.92 1307.73,1518.86" style="fill:none;stroke:black;stroke-width:7.1px;stroke-linejoin:round;stroke-miterlimit:1.5;stroke-dasharray:7.1,14.2,0,0;"/>
            </g>
        </g>
        <g transform="matrix(1.37891,0,0,0.833374,-764.949,908.417)">
            <g transform="matrix(0.694782,-0,-0,1.1496,522.998,-1303.78)">
                <path d="M1340.53,2120.59L1308.57,2184.51L1276.61,2120.59L1308.57,2152.55L1340.53,2120.59Z"/>
                <path d="M848.708,1771.62L848.708,2110.36L1308.57,2111.91L1308.57,2152.55" style="fill:none;stroke:black;stroke-width:7.1px;stroke-dasharray:7.1,14.2,0,0;"/>
            </g>
        </g>
        <g transform="matrix(2.81733,0,0,2.81733,81.2373,26.421)">
            <g transform="matrix(0.924884,0,0,0.960034,-94.1288,184.638)">
                <g transform="matrix(0.560606,0,0,1,81.5361,-150.061)">
                    <g transform="matrix(0.655848,-0,-0,0.354211,-49.4836,-117.887)">
                        <path d="M1014.31,1777.34L1069.16,1804.76L1014.31,1832.18L1041.74,1804.76L1014.31,1777.34Z"/>
                        <path d="M628.254,1804.76L1041.74,1804.76" style="fill:none;stroke:black;stroke-width:6.09px;stroke-linejoin:round;stroke-miterlimit:1.5;"/>
                    </g>
                </g>
                <g transform="matrix(0.383774,0,0,0.369723,70.5969,10.017)">
                    <path d="M769.32,652.644L769.32,827" style="fill:none;stroke:black;stroke-width:6.8px;stroke-dasharray:6.8,13.61,0,0;"/>
                </g>
                <g transform="matrix(1.44766,0,0,1.44766,-95.2832,-147.882)">
                    <text x="296.836px" y="341.744px" style="font-family:'TimesNewRomanPSMT', 'Times New Roman', serif;font-size:21.283px;">MIDI</text>
                </g>
            </g>
            <g transform="matrix(0.924884,0,0,0.960034,219.919,184.638)">
                <g transform="matrix(0.560606,0,0,1,81.5361,-150.061)">
                    <g transform="matrix(0.655848,-0,-0,0.354211,-655.174,-117.887)">
                        <path d="M1937.84,1777.34L1992.68,1804.76L1937.84,1832.18L1965.26,1804.76L1937.84,1777.34Z"/>
                        <path d="M1551.78,1804.76L1965.26,1804.76" style="fill:none;stroke:black;stroke-width:6.09px;stroke-linejoin:round;stroke-miterlimit:1.5;"/>
                    </g>
                </g>
                <g transform="matrix(1.44766,0,0,1.44766,-100.272,-145.294)">
                    <g transform="matrix(21.2828,0,0,21.2828,350.625,341.744)">
                    </g>
                    <text x="296.836px" y="341.744px" style="font-family:'TimesNewRomanPSMT', 'Times New Roman', serif;font-size:21.283px;">MIDI</text>
                </g>
            </g>
            <g transform="matrix(0.924884,0,0,0.960034,533.601,186.871)">
                <g transform="matrix(0.560606,0,0,1,81.5361,-150.061)">
                    <g transform="matrix(0.655848,-0,-0,0.354211,-1260.16,-120.212)">
                        <path d="M2851.14,1779.33L2915.13,1811.33L2851.14,1843.32L2883.13,1811.33L2851.14,1779.33Z"/>
                        <path d="M2474.22,1811.33L2883.13,1811.33" style="fill:none;stroke:black;stroke-width:6.09px;stroke-linejoin:round;stroke-miterlimit:1.5;"/>
                    </g>
                </g>
                <g transform="matrix(1.44766,0,0,1.44766,-107.564,-145.294)">
                    <text x="300.924px" y="341.744px" style="font-family:'TimesNewRomanPSMT', 'Times New Roman', serif;font-size:21.283px;">Audio</text>
                </g>
            </g>
            <g transform="matrix(0.924884,0,0,0.960034,-95.7886,182.405)">
                <g transform="matrix(0.864865,0,0,0.864865,122.263,82.8606)">
                    <rect x="377.89" y="232.211" width="202.637" height="202.637" style="fill:rgb(235,235,235);stroke:black;stroke-width:1.92px;stroke-linejoin:round;stroke-miterlimit:1.5;"/>
                </g>
                <g transform="matrix(1.13895,0,0,1.13895,-101.247,-51.499)">
                    <text x="538.49px" y="365.83px" style="font-family:'TimesNewRomanPS-BoldMT', 'Times New Roman', serif;font-weight:700;font-size:27.051px;">LS-</text>
                    <g transform="matrix(27.0515,0,0,27.0515,624.914,393.83)">
                    </g>
                    <text x="494.161px" y="393.83px" style="font-family:'TimesNewRomanPS-BoldMT', 'Times New Roman', serif;font-weight:700;font-size:27.051px;">Instrument</text>
                </g>
            </g>
            <g transform="matrix(0.924884,0,0,0.960034,217.893,182.405)">
                <g transform="matrix(0.864865,0,0,0.864865,122.263,82.8606)">
                    <rect x="377.89" y="232.211" width="202.637" height="202.637" style="fill:rgb(235,235,235);stroke:black;stroke-width:1.92px;stroke-linejoin:round;stroke-miterlimit:1.5;"/>
                </g>
                <g transform="matrix(1.13895,0,0,1.13895,-101.247,-38.2699)">
                    <g transform="matrix(27.0515,0,0,27.0515,593.372,365.83)">
                    </g>
                    <text x="525.704px" y="365.83px" style="font-family:'TimesNewRomanPS-BoldMT', 'Times New Roman', serif;font-weight:700;font-size:27.051px;">Synth</text>
                </g>
            </g>
        </g>
        <g transform="matrix(2.81733,0,0,2.81733,81.2373,633.537)">
            <g transform="matrix(0.924884,0,0,0.960034,-94.1288,184.638)">
                <g transform="matrix(0.560606,0,0,1,81.5361,-150.061)">
                    <g transform="matrix(0.655848,-0,-0,0.354211,-49.4836,-342.351)">
                        <path d="M1014.31,2411.04L1069.16,2438.46L1014.31,2465.89L1041.74,2438.46L1014.31,2411.04Z"/>
                        <path d="M628.254,2438.46L1041.74,2438.46" style="fill:none;stroke:black;stroke-width:6.09px;stroke-linejoin:round;stroke-miterlimit:1.5;"/>
                    </g>
                </g>
                <g transform="matrix(1.44766,0,0,1.44766,-95.2832,-150.1)">
                    <g transform="matrix(21.2828,0,0,21.2828,350.625,341.744)">
                    </g>
                    <text x="296.836px" y="341.744px" style="font-family:'TimesNewRomanPSMT', 'Times New Roman', serif;font-size:21.283px;">MIDI</text>
                </g>
            </g>
            <g transform="matrix(0.924884,0,0,0.960034,219.919,184.638)">
                <g transform="matrix(0.560606,0,0,1,81.5361,-150.061)">
                    <g transform="matrix(0.655848,-0,-0,0.354211,-655.174,-342.351)">
                        <path d="M1937.84,2411.04L1992.68,2438.46L1937.84,2465.89L1965.26,2438.46L1937.84,2411.04Z"/>
                        <path d="M1551.78,2438.46L1965.26,2438.46" style="fill:none;stroke:black;stroke-width:6.09px;stroke-linejoin:round;stroke-miterlimit:1.5;"/>
                    </g>
                </g>
                <g transform="matrix(1.44766,0,0,1.44766,-100.272,-145.294)">
                    <text x="296.836px" y="341.744px" style="font-family:'TimesNewRomanPSMT', 'Times New Roman', serif;font-size:21.283px;">MIDI</text>
                </g>
            </g>
            <g transform="matrix(0.924884,0,0,0.960034,533.601,186.871)">
                <g transform="matrix(0.560606,0,0,1,81.5361,-150.061)">
                    <g transform="matrix(0.655848,-0,-0,0.354211,-1260.16,-344.677)">
                        <path d="M2851.14,2413.03L2915.13,2445.03L2851.14,2477.02L2883.13,2445.03L2851.14,2413.03Z"/>
                        <path d="M2474.22,2445.03L2883.13,2445.03" style="fill:none;stroke:black;stroke-width:6.09px;stroke-linejoin:round;stroke-miterlimit:1.5;"/>
                    </g>
                </g>
                <g transform="matrix(1.44766,0,0,1.44766,-107.891,-145.294)">
                    <text x="300.924px" y="341.744px" style="font-family:'TimesNewRomanPSMT', 'Times New Roman', serif;font-size:21.283px;">Audio</text>
                </g>
            </g>
            <g transform="matrix(0.924884,0,0,0.960034,-95.7886,182.405)">
                <g transform="matrix(0.864865,0,0,0.864865,122.263,82.8606)">
                    <rect x="377.89" y="232.211" width="202.637" height="202.637" style="fill:rgb(235,235,235);stroke:black;stroke-width:1.92px;stroke-linejoin:round;stroke-miterlimit:1.5;"/>
                </g>
                <g transform="matrix(1.13895,0,0,1.13895,-101.247,-51.499)">
                    <text x="538.49px" y="365.83px" style="font-family:'TimesNewRomanPS-BoldMT', 'Times New Roman', serif;font-weight:700;font-size:27.051px;">LS-</text>
                    <g transform="matrix(27.0515,0,0,27.0515,624.914,393.83)">
                    </g>
                    <text x="494.161px" y="393.83px" style="font-family:'TimesNewRomanPS-BoldMT', 'Times New Roman', serif;font-weight:700;font-size:27.051px;">Instrument</text>
                </g>
            </g>
            <g transform="matrix(0.924884,0,0,0.960034,217.893,182.405)">
                <g transform="matrix(0.864865,0,0,0.864865,122.263,82.8606)">
                    <rect x="377.89" y="232.211" width="202.637" height="202.637" style="fill:rgb(235,235,235);stroke:black;stroke-width:1.92px;stroke-linejoin:round;stroke-miterlimit:1.5;"/>
                </g>
                <g transform="matrix(1.13895,0,0,1.13895,-101.247,-38.2699)">
                    <g transform="matrix(27.0515,0,0,27.0515,593.372,365.83)">
                    </g>
                    <text x="525.704px" y="365.83px" style="font-family:'TimesNewRomanPS-BoldMT', 'Times New Roman', serif;font-weight:700;font-size:27.051px;">Synth</text>
                </g>
            </g>
        </g>
        <g transform="matrix(2.81733,0,0,2.81733,81.2373,1240.65)">
            <g transform="matrix(0.924884,0,0,0.960034,-94.1288,184.638)">
                <g transform="matrix(0.560606,0,0,1,81.5361,-150.061)">
                    <g transform="matrix(0.655848,-0,-0,0.354211,-49.4836,-566.816)">
                        <path d="M1014.31,3044.74L1069.16,3072.17L1014.31,3099.59L1041.74,3072.17L1014.31,3044.74Z"/>
                        <path d="M628.254,3072.17L1041.74,3072.17" style="fill:none;stroke:black;stroke-width:6.09px;stroke-linejoin:round;stroke-miterlimit:1.5;"/>
                    </g>
                </g>
                <g transform="matrix(1.44766,0,0,1.44766,-95.2832,-145.784)">
                    <text x="296.836px" y="341.744px" style="font-family:'TimesNewRomanPSMT', 'Times New Roman', serif;font-size:21.283px;">MIDI</text>
                </g>
            </g>
            <g transform="matrix(0.924884,0,0,0.960034,219.919,184.638)">
                <g transform="matrix(0.560606,0,0,1,81.5361,-150.061)">
                    <g transform="matrix(0.655848,-0,-0,0.354211,-655.174,-566.816)">
                        <path d="M1937.84,3044.74L1992.68,3072.17L1937.84,3099.59L1965.26,3072.17L1937.84,3044.74Z"/>
                        <path d="M1551.78,3072.17L1965.26,3072.17" style="fill:none;stroke:black;stroke-width:6.09px;stroke-linejoin:round;stroke-miterlimit:1.5;"/>
                    </g>
                </g>
                <g transform="matrix(1.44766,0,0,1.44766,-100.272,-145.294)">
                    <text x="296.836px" y="341.744px" style="font-family:'TimesNewRomanPSMT', 'Times New Roman', serif;font-size:21.283px;">MIDI</text>
                </g>
            </g>
            <g transform="matrix(0.924884,0,0,0.960034,533.601,186.871)">
                <g transform="matrix(0.560606,0,0,1,81.5361,-150.061)">
                    <g transform="matrix(0.655848,-0,-0,0.354211,-1260.16,-569.142)">
                        <path d="M2851.14,3046.74L2915.13,3078.73L2851.14,3110.73L2883.13,3078.73L2851.14,3046.74Z"/>
                        <path d="M2474.22,3078.73L2883.13,3078.73" style="fill:none;stroke:black;stroke-width:6.09px;stroke-linejoin:round;stroke-miterlimit:1.5;"/>
                    </g>
                </g>
                <g transform="matrix(1.44766,0,0,1.44766,-107.891,-151.437)">
                    <text x="300.924px" y="341.744px" style="font-family:'TimesNewRomanPSMT', 'Times New Roman', serif;font-size:21.283px;">Audio</text>
                </g>
            </g>
            <g transform="matrix(0.924884,0,0,0.960034,-95.7886,182.405)">
                <g transform="matrix(0.864865,0,0,0.864865,122.263,82.8606)">
                    <rect x="377.89" y="232.211" width="202.637" height="202.637" style="fill:rgb(235,235,235);stroke:black;stroke-width:1.92px;stroke-linejoin:round;stroke-miterlimit:1.5;"/>
                </g>
                <g transform="matrix(1.13895,0,0,1.13895,-101.247,-51.499)">
                    <text x="538.49px" y="365.83px" style="font-family:'TimesNewRomanPS-BoldMT', 'Times New Roman', serif;font-weight:700;font-size:27.051px;">LS-</text>
                    <g transform="matrix(27.0515,0,0,27.0515,624.914,393.83)">
                    </g>
                    <text x="494.161px" y="393.83px" style="font-family:'TimesNewRomanPS-BoldMT', 'Times New Roman', serif;font-weight:700;font-size:27.051px;">Instrument</text>
                </g>
            </g>
            <g transform="matrix(0.924884,0,0,0.960034,217.893,182.405)">
                <g transform="matrix(0.864865,0,0,0.864865,122.263,82.8606)">
                    <rect x="377.89" y="232.211" width="202.637" height="202.637" style="fill:rgb(235,235,235);stroke:black;stroke-width:1.92px;stroke-linejoin:round;stroke-miterlimit:1.5;"/>
                </g>
                <g transform="matrix(1.13895,0,0,1.13895,-101.247,-38.2699)">
                    <g transform="matrix(27.0515,0,0,27.0515,593.372,365.83)">
                    </g>
                    <text x="525.704px" y="365.83px" style="font-family:'TimesNewRomanPS-BoldMT', 'Times New Roman', serif;font-weight:700;font-size:27.051px;">Synth</text>
                </g>
            </g>
        </g>
        <g transform="matrix(2.11341,0,0,2.19373,-368.932,25.0939)">
            <g transform="matrix(0.611552,-0.589161,0.634793,0.611552,31.9087,451.983)">
                <rect x="377.89" y="232.211" width="202.637" height="202.637" style="fill:rgb(235,235,235);stroke:black;stroke-width:2.37px;stroke-linejoin:round;stroke-miterlimit:1.5;"/>
            </g>
            <g transform="matrix(0.652458,0,0,0.62857,-227.593,30.1382)">
                <text x="1123.67px" y="525.545px" style="font-family:'TimesNewRomanPS-BoldMT', 'Times New Roman', serif;font-weight:700;font-size:60.434px;">LS-</text>
                <g transform="matrix(60.434,0,0,60.434,1310.03,588.546)">
                </g>
                <text x="1031.35px" y="588.546px" style="font-family:'TimesNewRomanPS-BoldMT', 'Times New Roman', serif;font-weight:700;font-size:60.434px;">Conductor</text>
            </g>
        </g>
        <g transform="matrix(2.11341,0,0,2.19373,-389.738,-604.563)">
            <g transform="matrix(0.611552,-0.589161,0.634793,0.611552,36.5279,449.683)">
                <rect x="377.89" y="232.211" width="202.637" height="202.637" style="fill:rgb(235,235,235);stroke:black;stroke-width:2.37px;stroke-linejoin:round;stroke-miterlimit:1.5;"/>
            </g>
            <g transform="matrix(0.652458,0,0,0.62857,-224.801,25.951)">
                <text x="1096.83px" y="525.545px" style="font-family:'TimesNewRomanPS-BoldMT', 'Times New Roman', serif;font-weight:700;font-size:60.434px;">MIDI</text>
                <g transform="matrix(60.434,0,0,60.434,1306.08,588.546)">
                </g>
                <text x="1035.31px" y="588.546px" style="font-family:'TimesNewRomanPS-BoldMT', 'Times New Roman', serif;font-weight:700;font-size:60.434px;">Contr<tspan x="1188.63px 1218.85px " y="588.546px 588.546px ">ol</tspan>ler</text>
            </g>
        </g>
        <g transform="matrix(1.37891,0,0,1.37891,-176.045,211.296)">
            <g transform="matrix(81.586,0,0,81.586,1356.47,525.545)">
            </g>
            <text x="984.912px" y="525.545px" style="font-family:'TimesNewRomanPS-BoldMT', 'Times New Roman', serif;font-weight:700;font-size:81.586px;fill:rgb(136,136,136);">LiveScaler</text>
        </g>
        <g transform="matrix(1.37891,0,0,1.37891,-624.891,141.833)">
            <g transform="matrix(66.4775,0,0,66.4775,1242.63,751.003)">
            </g>
            <text x="1019.93px" y="751.003px" style="font-family:'CambriaMath', 'Cambria Math', serif;font-size:66.477px;">A&lt;μ,τ&gt;</text>
        </g>
        <g transform="matrix(1,0,0,1,0,573.7)">
            <path d="M769.32,1269.66L769.32,1433" style="fill:none;stroke:black;stroke-width:6.8px;stroke-dasharray:6.8,13.61,0,0;"/>
        </g>
        <g transform="matrix(1,0.000775804,0.000775804,1.21982,-5.52964,-253.29)">
            <g transform="matrix(0.958043,-0.000609315,-0.000609315,0.785401,-38.2981,61.6496)">
                <path d="M870.26,723.926L838.525,787.959L806.34,724.151L838.413,755.999L870.26,723.926Z"/>
                <path d="M838.157,683.699C838.157,683.699 838.304,725.348 838.413,755.999" style="fill:none;stroke:black;stroke-width:7.1px;stroke-dasharray:7.1,14.2,0,0;"/>
            </g>
        </g>
    </g>
</svg>
