<?xml version="1.0" encoding="UTF-8" standalone="no"?>
<!DOCTYPE svg PUBLIC "-//W3C//DTD SVG 1.1//EN" "http://www.w3.org/Graphics/SVG/1.1/DTD/svg11.dtd">
<svg width="100%" height="100%" viewBox="0 0 1155 1162" version="1.1" xmlns="http://www.w3.org/2000/svg" xmlns:xlink="http://www.w3.org/1999/xlink" xml:space="preserve" xmlns:serif="http://www.serif.com/" style="fill-rule:evenodd;clip-rule:evenodd;stroke-miterlimit:10;">
    <g transform="matrix(1.33333,0,0,-1.33333,0,1161.33)">
        <g id="g10">
            <g id="g12">
                <g id="g14">
                    <clipPath id="_clip1">
                        <rect x="0" y="0" width="866" height="871"/>
                    </clipPath>
                    <g clip-path="url(#_clip1)">
                        <rect id="path20" x="9.677" y="10.325" width="846" height="850.999" style="fill:none;fill-rule:nonzero;stroke:rgb(102,102,102);stroke-width:19.35px;"/>
                        <rect id="path22" x="18.677" y="27.323" width="827" height="827" style="fill:none;fill-rule:nonzero;stroke:rgb(179,179,179);stroke-width:19px;"/>
                        <path id="path24" d="M18.677,234.073L845.677,234.073" style="fill:none;fill-rule:nonzero;stroke:rgb(179,179,179);stroke-width:19px;"/>
                        <path id="path26" d="M18.677,440.823L845.677,440.823" style="fill:none;fill-rule:nonzero;stroke:rgb(179,179,179);stroke-width:19px;"/>
                        <path id="path28" d="M18.677,647.573L845.677,647.573" style="fill:none;fill-rule:nonzero;stroke:rgb(179,179,179);stroke-width:19px;"/>
                        <path id="path30" d="M638.927,854.323L638.927,27.323" style="fill:none;fill-rule:nonzero;stroke:rgb(179,179,179);stroke-width:19px;"/>
                        <path id="path32" d="M432.177,854.323L432.177,27.323" style="fill:none;fill-rule:nonzero;stroke:rgb(179,179,179);stroke-width:19px;"/>
                        <path id="path34" d="M225.427,854.323L225.427,27.323" style="fill:none;fill-rule:nonzero;stroke:rgb(179,179,179);stroke-width:19px;"/>
                        <path id="path36" d="M206.529,842.843L35.825,842.843C29.381,842.843 24.157,837.619 24.157,831.175L24.157,660.471C24.157,654.027 29.381,648.803 35.825,648.803L206.529,648.803C212.973,648.803 218.197,654.027 218.197,660.471L218.197,831.175C218.197,837.619 212.973,842.843 206.529,842.843M206.529,835.843C209.103,835.843 211.197,833.749 211.197,831.175L211.197,660.471C211.197,657.897 209.103,655.803 206.529,655.803L35.825,655.803C33.251,655.803 31.157,657.897 31.157,660.471L31.157,831.175C31.157,833.749 33.251,835.843 35.825,835.843L206.529,835.843Z" style="fill:rgb(128,128,128);fill-rule:nonzero;"/>
                        <path id="path38" d="M206.529,634.843L35.825,634.843C29.381,634.843 24.157,629.619 24.157,623.175L24.157,452.471C24.157,446.027 29.381,440.803 35.825,440.803L206.529,440.803C212.973,440.803 218.197,446.027 218.197,452.471L218.197,623.175C218.197,629.619 212.973,634.843 206.529,634.843M206.529,627.843C209.103,627.843 211.197,625.749 211.197,623.175L211.197,452.471C211.197,449.897 209.103,447.803 206.529,447.803L35.825,447.803C33.251,447.803 31.157,449.897 31.157,452.471L31.157,623.175C31.157,625.749 33.251,627.843 35.825,627.843L206.529,627.843Z" style="fill:rgb(128,128,128);fill-rule:nonzero;"/>
                        <path id="path40" d="M206.529,428.843L35.825,428.843C29.381,428.843 24.157,423.619 24.157,417.175L24.157,246.471C24.157,240.027 29.381,234.803 35.825,234.803L206.529,234.803C212.973,234.803 218.197,240.027 218.197,246.471L218.197,417.175C218.197,423.619 212.973,428.843 206.529,428.843M206.529,421.843C209.103,421.843 211.197,419.749 211.197,417.175L211.197,246.471C211.197,243.897 209.103,241.803 206.529,241.803L35.825,241.803C33.251,241.803 31.157,243.897 31.157,246.471L31.157,417.175C31.157,419.749 33.251,421.843 35.825,421.843L206.529,421.843Z" style="fill:rgb(128,128,128);fill-rule:nonzero;"/>
                        <path id="path42" d="M206.529,221.843L35.825,221.843C29.381,221.843 24.157,216.619 24.157,210.175L24.157,39.471C24.157,33.027 29.381,27.803 35.825,27.803L206.529,27.803C212.973,27.803 218.197,33.027 218.197,39.471L218.197,210.175C218.197,216.619 212.973,221.843 206.529,221.843M206.529,214.843C209.103,214.843 211.197,212.749 211.197,210.175L211.197,39.471C211.197,36.897 209.103,34.803 206.529,34.803L35.825,34.803C33.251,34.803 31.157,36.897 31.157,39.471L31.157,210.175C31.157,212.749 33.251,214.843 35.825,214.843L206.529,214.843Z" style="fill:rgb(128,128,128);fill-rule:nonzero;"/>
                        <path id="path44" d="M413.529,221.843L242.824,221.843C236.381,221.843 231.157,216.619 231.157,210.175L231.157,39.471C231.157,33.027 236.381,27.803 242.824,27.803L413.529,27.803C419.973,27.803 425.197,33.027 425.197,39.471L425.197,210.175C425.197,216.619 419.973,221.843 413.529,221.843M413.529,214.843C416.103,214.843 418.197,212.749 418.197,210.175L418.197,39.471C418.197,36.897 416.103,34.803 413.529,34.803L242.824,34.803C240.251,34.803 238.157,36.897 238.157,39.471L238.157,210.175C238.157,212.749 240.251,214.843 242.824,214.843L413.529,214.843Z" style="fill:rgb(128,128,128);fill-rule:nonzero;"/>
                        <path id="path46" d="M413.529,428.843L242.824,428.843C236.381,428.843 231.157,423.619 231.157,417.175L231.157,246.471C231.157,240.027 236.381,234.803 242.824,234.803L413.529,234.803C419.973,234.803 425.197,240.027 425.197,246.471L425.197,417.175C425.197,423.619 419.973,428.843 413.529,428.843M413.529,421.843C416.103,421.843 418.197,419.749 418.197,417.175L418.197,246.471C418.197,243.897 416.103,241.803 413.529,241.803L242.824,241.803C240.251,241.803 238.157,243.897 238.157,246.471L238.157,417.175C238.157,419.749 240.251,421.843 242.824,421.843L413.529,421.843Z" style="fill:rgb(128,128,128);fill-rule:nonzero;"/>
                        <path id="path48" d="M413.529,635.843L242.824,635.843C236.381,635.843 231.157,630.619 231.157,624.175L231.157,453.471C231.157,447.027 236.381,441.803 242.824,441.803L413.529,441.803C419.973,441.803 425.197,447.027 425.197,453.471L425.197,624.175C425.197,630.619 419.973,635.843 413.529,635.843M413.529,628.843C416.103,628.843 418.197,626.749 418.197,624.175L418.197,453.471C418.197,450.897 416.103,448.803 413.529,448.803L242.824,448.803C240.251,448.803 238.157,450.897 238.157,453.471L238.157,624.175C238.157,626.749 240.251,628.843 242.824,628.843L413.529,628.843Z" style="fill:rgb(128,128,128);fill-rule:nonzero;"/>
                        <path id="path50" d="M413.529,842.843L242.824,842.843C236.381,842.843 231.157,837.619 231.157,831.175L231.157,660.471C231.157,654.027 236.381,648.803 242.824,648.803L413.529,648.803C419.973,648.803 425.197,654.027 425.197,660.471L425.197,831.175C425.197,837.619 419.973,842.843 413.529,842.843M413.529,835.843C416.103,835.843 418.197,833.749 418.197,831.175L418.197,660.471C418.197,657.897 416.103,655.803 413.529,655.803L242.824,655.803C240.251,655.803 238.157,657.897 238.157,660.471L238.157,831.175C238.157,833.749 240.251,835.843 242.824,835.843L413.529,835.843Z" style="fill:rgb(128,128,128);fill-rule:nonzero;"/>
                        <path id="path52" d="M620.529,221.843L449.825,221.843C443.381,221.843 438.157,216.619 438.157,210.175L438.157,39.471C438.157,33.027 443.381,27.803 449.825,27.803L620.529,27.803C626.973,27.803 632.197,33.027 632.197,39.471L632.197,210.175C632.197,216.619 626.973,221.843 620.529,221.843M620.529,214.843C623.103,214.843 625.197,212.749 625.197,210.175L625.197,39.471C625.197,36.897 623.103,34.803 620.529,34.803L449.825,34.803C447.251,34.803 445.157,36.897 445.157,39.471L445.157,210.175C445.157,212.749 447.251,214.843 449.825,214.843L620.529,214.843Z" style="fill:rgb(128,128,128);fill-rule:nonzero;"/>
                        <path id="path54" d="M620.529,428.843L449.825,428.843C443.381,428.843 438.157,423.619 438.157,417.175L438.157,246.471C438.157,240.027 443.381,234.803 449.825,234.803L620.529,234.803C626.973,234.803 632.197,240.027 632.197,246.471L632.197,417.175C632.197,423.619 626.973,428.843 620.529,428.843M620.529,421.843C623.103,421.843 625.197,419.749 625.197,417.175L625.197,246.471C625.197,243.897 623.103,241.803 620.529,241.803L449.825,241.803C447.251,241.803 445.157,243.897 445.157,246.471L445.157,417.175C445.157,419.749 447.251,421.843 449.825,421.843L620.529,421.843Z" style="fill:rgb(128,128,128);fill-rule:nonzero;"/>
                        <path id="path56" d="M620.529,635.843L449.825,635.843C443.381,635.843 438.157,630.619 438.157,624.175L438.157,453.471C438.157,447.027 443.381,441.803 449.825,441.803L620.529,441.803C626.973,441.803 632.197,447.027 632.197,453.471L632.197,624.175C632.197,630.619 626.973,635.843 620.529,635.843M620.529,628.843C623.103,628.843 625.197,626.749 625.197,624.175L625.197,453.471C625.197,450.897 623.103,448.803 620.529,448.803L449.825,448.803C447.251,448.803 445.157,450.897 445.157,453.471L445.157,624.175C445.157,626.749 447.251,628.843 449.825,628.843L620.529,628.843Z" style="fill:rgb(128,128,128);fill-rule:nonzero;"/>
                        <path id="path58" d="M620.529,842.843L449.825,842.843C443.381,842.843 438.157,837.619 438.157,831.175L438.157,660.471C438.157,654.027 443.381,648.803 449.825,648.803L620.529,648.803C626.973,648.803 632.197,654.027 632.197,660.471L632.197,831.175C632.197,837.619 626.973,842.843 620.529,842.843M620.529,835.843C623.103,835.843 625.197,833.749 625.197,831.175L625.197,660.471C625.197,657.897 623.103,655.803 620.529,655.803L449.825,655.803C447.251,655.803 445.157,657.897 445.157,660.471L445.157,831.175C445.157,833.749 447.251,835.843 449.825,835.843L620.529,835.843Z" style="fill:rgb(128,128,128);fill-rule:nonzero;"/>
                        <path id="path60" d="M827.529,221.843L656.825,221.843C650.381,221.843 645.157,216.619 645.157,210.175L645.157,39.471C645.157,33.027 650.381,27.803 656.825,27.803L827.529,27.803C833.973,27.803 839.197,33.027 839.197,39.471L839.197,210.175C839.197,216.619 833.973,221.843 827.529,221.843M827.529,214.843C830.103,214.843 832.197,212.749 832.197,210.175L832.197,39.471C832.197,36.897 830.103,34.803 827.529,34.803L656.825,34.803C654.251,34.803 652.157,36.897 652.157,39.471L652.157,210.175C652.157,212.749 654.251,214.843 656.825,214.843L827.529,214.843Z" style="fill:rgb(128,128,128);fill-rule:nonzero;"/>
                        <path id="path62" d="M827.529,428.843L656.825,428.843C650.381,428.843 645.157,423.619 645.157,417.175L645.157,246.471C645.157,240.027 650.381,234.803 656.825,234.803L827.529,234.803C833.973,234.803 839.197,240.027 839.197,246.471L839.197,417.175C839.197,423.619 833.973,428.843 827.529,428.843M827.529,421.843C830.103,421.843 832.197,419.749 832.197,417.175L832.197,246.471C832.197,243.897 830.103,241.803 827.529,241.803L656.825,241.803C654.251,241.803 652.157,243.897 652.157,246.471L652.157,417.175C652.157,419.749 654.251,421.843 656.825,421.843L827.529,421.843Z" style="fill:rgb(128,128,128);fill-rule:nonzero;"/>
                        <path id="path64" d="M827.529,635.843L656.825,635.843C650.381,635.843 645.157,630.619 645.157,624.175L645.157,453.471C645.157,447.027 650.381,441.803 656.825,441.803L827.529,441.803C833.973,441.803 839.197,447.027 839.197,453.471L839.197,624.175C839.197,630.619 833.973,635.843 827.529,635.843M827.529,628.843C830.103,628.843 832.197,626.749 832.197,624.175L832.197,453.471C832.197,450.897 830.103,448.803 827.529,448.803L656.825,448.803C654.251,448.803 652.157,450.897 652.157,453.471L652.157,624.175C652.157,626.749 654.251,628.843 656.825,628.843L827.529,628.843Z" style="fill:rgb(128,128,128);fill-rule:nonzero;"/>
                        <path id="path66" d="M827.529,842.843L656.825,842.843C650.381,842.843 645.157,837.619 645.157,831.175L645.157,660.471C645.157,654.027 650.381,648.803 656.825,648.803L827.529,648.803C833.973,648.803 839.197,654.027 839.197,660.471L839.197,831.175C839.197,837.619 833.973,842.843 827.529,842.843M827.529,835.843C830.103,835.843 832.197,833.749 832.197,831.175L832.197,660.471C832.197,657.897 830.103,655.803 827.529,655.803L656.825,655.803C654.251,655.803 652.157,657.897 652.157,660.471L652.157,831.175C652.157,833.749 654.251,835.843 656.825,835.843L827.529,835.843Z" style="fill:rgb(128,128,128);fill-rule:nonzero;"/>
                        <path id="path68" d="M35.825,659.148C31.786,659.148 28.501,662.433 28.501,666.472L28.501,837.176C28.501,841.214 31.786,844.5 35.825,844.5L206.529,844.5C210.568,844.5 213.853,841.214 213.853,837.176L213.853,666.472C213.853,662.433 210.568,659.148 206.529,659.148L35.825,659.148Z" style="fill:white;fill-rule:nonzero;"/>
                        <path id="path70" d="M206.529,848.843L35.825,848.843C29.381,848.843 24.157,843.619 24.157,837.175L24.157,666.471C24.157,660.027 29.381,654.803 35.825,654.803L206.529,654.803C212.973,654.803 218.197,660.027 218.197,666.471L218.197,837.175C218.197,843.619 212.973,848.843 206.529,848.843M206.529,840.155C208.172,840.155 209.508,838.818 209.508,837.175L209.508,666.471C209.508,664.828 208.172,663.491 206.529,663.491L35.825,663.491C34.182,663.491 32.845,664.828 32.845,666.471L32.845,837.175C32.845,838.818 34.182,840.155 35.825,840.155L206.529,840.155Z" style="fill:rgb(51,51,51);fill-rule:nonzero;"/>
                        <path id="path72" d="M35.825,451.148C31.786,451.148 28.501,454.433 28.501,458.472L28.501,629.176C28.501,633.214 31.786,636.5 35.825,636.5L206.529,636.5C210.568,636.5 213.853,633.214 213.853,629.176L213.853,458.472C213.853,454.433 210.568,451.148 206.529,451.148L35.825,451.148Z" style="fill:white;fill-rule:nonzero;"/>
                        <path id="path74" d="M206.529,640.843L35.825,640.843C29.381,640.843 24.157,635.619 24.157,629.175L24.157,458.471C24.157,452.027 29.381,446.803 35.825,446.803L206.529,446.803C212.973,446.803 218.197,452.027 218.197,458.471L218.197,629.175C218.197,635.619 212.973,640.843 206.529,640.843M206.529,632.155C208.172,632.155 209.508,630.818 209.508,629.175L209.508,458.471C209.508,456.828 208.172,455.491 206.529,455.491L35.825,455.491C34.182,455.491 32.845,456.828 32.845,458.471L32.845,629.175C32.845,630.818 34.182,632.155 35.825,632.155L206.529,632.155Z" style="fill:rgb(51,51,51);fill-rule:nonzero;"/>
                        <path id="path76" d="M35.825,245.148C31.786,245.148 28.501,248.433 28.501,252.471L28.501,423.176C28.501,427.214 31.786,430.5 35.825,430.5L206.529,430.5C210.568,430.5 213.853,427.214 213.853,423.176L213.853,252.471C213.853,248.433 210.568,245.148 206.529,245.148L35.825,245.148Z" style="fill:white;fill-rule:nonzero;"/>
                        <path id="path78" d="M206.529,434.843L35.825,434.843C29.381,434.843 24.157,429.619 24.157,423.175L24.157,252.471C24.157,246.027 29.381,240.803 35.825,240.803L206.529,240.803C212.973,240.803 218.197,246.027 218.197,252.471L218.197,423.175C218.197,429.619 212.973,434.843 206.529,434.843M206.529,426.155C208.172,426.155 209.508,424.818 209.508,423.175L209.508,252.471C209.508,250.828 208.172,249.491 206.529,249.491L35.825,249.491C34.182,249.491 32.845,250.828 32.845,252.471L32.845,423.175C32.845,424.818 34.182,426.155 35.825,426.155L206.529,426.155Z" style="fill:rgb(51,51,51);fill-rule:nonzero;"/>
                        <path id="path80" d="M35.825,38.148C31.786,38.148 28.501,41.433 28.501,45.471L28.501,216.176C28.501,220.214 31.786,223.5 35.825,223.5L206.529,223.5C210.568,223.5 213.853,220.214 213.853,216.176L213.853,45.471C213.853,41.433 210.568,38.148 206.529,38.148L35.825,38.148Z" style="fill:white;fill-rule:nonzero;"/>
                        <path id="path82" d="M206.529,227.843L35.825,227.843C29.381,227.843 24.157,222.619 24.157,216.175L24.157,45.471C24.157,39.027 29.381,33.803 35.825,33.803L206.529,33.803C212.973,33.803 218.197,39.027 218.197,45.471L218.197,216.175C218.197,222.619 212.973,227.843 206.529,227.843M206.529,219.155C208.172,219.155 209.508,217.818 209.508,216.175L209.508,45.471C209.508,43.828 208.172,42.491 206.529,42.491L35.825,42.491C34.182,42.491 32.845,43.828 32.845,45.471L32.845,216.175C32.845,217.818 34.182,219.155 35.825,219.155L206.529,219.155Z" style="fill:rgb(51,51,51);fill-rule:nonzero;"/>
                        <path id="path84" d="M242.825,38.148C238.786,38.148 235.501,41.433 235.501,45.471L235.501,216.176C235.501,220.214 238.786,223.5 242.825,223.5L413.529,223.5C417.568,223.5 420.853,220.214 420.853,216.176L420.853,45.471C420.853,41.433 417.568,38.148 413.529,38.148L242.825,38.148Z" style="fill:white;fill-rule:nonzero;"/>
                        <path id="path86" d="M413.529,227.843L242.825,227.843C236.381,227.843 231.157,222.619 231.157,216.175L231.157,45.471C231.157,39.027 236.381,33.803 242.825,33.803L413.529,33.803C419.973,33.803 425.197,39.027 425.197,45.471L425.197,216.175C425.197,222.619 419.973,227.843 413.529,227.843M413.529,219.155C415.172,219.155 416.508,217.818 416.508,216.175L416.508,45.471C416.508,43.828 415.172,42.491 413.529,42.491L242.825,42.491C241.182,42.491 239.845,43.828 239.845,45.471L239.845,216.175C239.845,217.818 241.182,219.155 242.825,219.155L413.529,219.155Z" style="fill:rgb(51,51,51);fill-rule:nonzero;"/>
                        <path id="path88" d="M242.825,245.148C238.786,245.148 235.501,248.433 235.501,252.471L235.501,423.176C235.501,427.214 238.786,430.5 242.825,430.5L413.529,430.5C417.568,430.5 420.853,427.214 420.853,423.176L420.853,252.471C420.853,248.433 417.568,245.148 413.529,245.148L242.825,245.148Z" style="fill:white;fill-rule:nonzero;"/>
                        <path id="path90" d="M413.529,434.843L242.825,434.843C236.381,434.843 231.157,429.619 231.157,423.175L231.157,252.471C231.157,246.027 236.381,240.803 242.825,240.803L413.529,240.803C419.973,240.803 425.197,246.027 425.197,252.471L425.197,423.175C425.197,429.619 419.973,434.843 413.529,434.843M413.529,426.155C415.172,426.155 416.508,424.818 416.508,423.175L416.508,252.471C416.508,250.828 415.172,249.491 413.529,249.491L242.825,249.491C241.182,249.491 239.845,250.828 239.845,252.471L239.845,423.175C239.845,424.818 241.182,426.155 242.825,426.155L413.529,426.155Z" style="fill:rgb(51,51,51);fill-rule:nonzero;"/>
                        <path id="path92" d="M242.825,452.148C238.786,452.148 235.501,455.433 235.501,459.472L235.501,630.176C235.501,634.214 238.786,637.5 242.825,637.5L413.529,637.5C417.568,637.5 420.853,634.214 420.853,630.176L420.853,459.472C420.853,455.433 417.568,452.148 413.529,452.148L242.825,452.148Z" style="fill:white;fill-rule:nonzero;"/>
                        <path id="path94" d="M413.529,641.843L242.825,641.843C236.381,641.843 231.157,636.619 231.157,630.175L231.157,459.471C231.157,453.027 236.381,447.803 242.825,447.803L413.529,447.803C419.973,447.803 425.197,453.027 425.197,459.471L425.197,630.175C425.197,636.619 419.973,641.843 413.529,641.843M413.529,633.155C415.172,633.155 416.508,631.818 416.508,630.175L416.508,459.471C416.508,457.828 415.172,456.491 413.529,456.491L242.825,456.491C241.182,456.491 239.845,457.828 239.845,459.471L239.845,630.175C239.845,631.818 241.182,633.155 242.825,633.155L413.529,633.155Z" style="fill:rgb(51,51,51);fill-rule:nonzero;"/>
                        <path id="path96" d="M242.825,659.148C238.786,659.148 235.501,662.433 235.501,666.472L235.501,837.176C235.501,841.214 238.786,844.5 242.825,844.5L413.529,844.5C417.568,844.5 420.853,841.214 420.853,837.176L420.853,666.472C420.853,662.433 417.568,659.148 413.529,659.148L242.825,659.148Z" style="fill:white;fill-rule:nonzero;"/>
                        <path id="path98" d="M413.529,848.843L242.825,848.843C236.381,848.843 231.157,843.619 231.157,837.175L231.157,666.471C231.157,660.027 236.381,654.803 242.825,654.803L413.529,654.803C419.973,654.803 425.197,660.027 425.197,666.471L425.197,837.175C425.197,843.619 419.973,848.843 413.529,848.843M413.529,840.155C415.172,840.155 416.508,838.818 416.508,837.175L416.508,666.471C416.508,664.828 415.172,663.491 413.529,663.491L242.825,663.491C241.182,663.491 239.845,664.828 239.845,666.471L239.845,837.175C239.845,838.818 241.182,840.155 242.825,840.155L413.529,840.155Z" style="fill:rgb(51,51,51);fill-rule:nonzero;"/>
                        <path id="path100" d="M449.824,38.148C445.786,38.148 442.501,41.433 442.501,45.471L442.501,216.176C442.501,220.214 445.786,223.5 449.824,223.5L620.529,223.5C624.567,223.5 627.852,220.214 627.852,216.176L627.852,45.471C627.852,41.433 624.567,38.148 620.529,38.148L449.824,38.148Z" style="fill:white;fill-rule:nonzero;"/>
                        <path id="path102" d="M620.529,227.843L449.825,227.843C443.381,227.843 438.157,222.619 438.157,216.175L438.157,45.471C438.157,39.027 443.381,33.803 449.825,33.803L620.529,33.803C626.973,33.803 632.197,39.027 632.197,45.471L632.197,216.175C632.197,222.619 626.973,227.843 620.529,227.843M620.529,219.155C622.172,219.155 623.508,217.818 623.508,216.175L623.508,45.471C623.508,43.828 622.172,42.491 620.529,42.491L449.825,42.491C448.182,42.491 446.845,43.828 446.845,45.471L446.845,216.175C446.845,217.818 448.182,219.155 449.825,219.155L620.529,219.155Z" style="fill:rgb(51,51,51);fill-rule:nonzero;"/>
                        <path id="path104" d="M449.824,245.148C445.786,245.148 442.501,248.433 442.501,252.471L442.501,423.176C442.501,427.214 445.786,430.5 449.824,430.5L620.529,430.5C624.567,430.5 627.852,427.214 627.852,423.176L627.852,252.471C627.852,248.433 624.567,245.148 620.529,245.148L449.824,245.148Z" style="fill:white;fill-rule:nonzero;"/>
                        <path id="path106" d="M620.529,434.843L449.825,434.843C443.381,434.843 438.157,429.619 438.157,423.175L438.157,252.471C438.157,246.027 443.381,240.803 449.825,240.803L620.529,240.803C626.973,240.803 632.197,246.027 632.197,252.471L632.197,423.175C632.197,429.619 626.973,434.843 620.529,434.843M620.529,426.155C622.172,426.155 623.508,424.818 623.508,423.175L623.508,252.471C623.508,250.828 622.172,249.491 620.529,249.491L449.825,249.491C448.182,249.491 446.845,250.828 446.845,252.471L446.845,423.175C446.845,424.818 448.182,426.155 449.825,426.155L620.529,426.155Z" style="fill:rgb(51,51,51);fill-rule:nonzero;"/>
                        <path id="path108" d="M449.824,452.148C445.786,452.148 442.501,455.433 442.501,459.472L442.501,630.176C442.501,634.214 445.786,637.5 449.824,637.5L620.529,637.5C624.567,637.5 627.852,634.214 627.852,630.176L627.852,459.472C627.852,455.433 624.567,452.148 620.529,452.148L449.824,452.148Z" style="fill:white;fill-rule:nonzero;"/>
                        <path id="path110" d="M620.529,641.843L449.825,641.843C443.381,641.843 438.157,636.619 438.157,630.175L438.157,459.471C438.157,453.027 443.381,447.803 449.825,447.803L620.529,447.803C626.973,447.803 632.197,453.027 632.197,459.471L632.197,630.175C632.197,636.619 626.973,641.843 620.529,641.843M620.529,633.155C622.172,633.155 623.508,631.818 623.508,630.175L623.508,459.471C623.508,457.828 622.172,456.491 620.529,456.491L449.825,456.491C448.182,456.491 446.845,457.828 446.845,459.471L446.845,630.175C446.845,631.818 448.182,633.155 449.825,633.155L620.529,633.155Z" style="fill:rgb(51,51,51);fill-rule:nonzero;"/>
                        <path id="path112" d="M449.824,659.148C445.786,659.148 442.501,662.433 442.501,666.472L442.501,837.176C442.501,841.214 445.786,844.5 449.824,844.5L620.529,844.5C624.567,844.5 627.852,841.214 627.852,837.176L627.852,666.472C627.852,662.433 624.567,659.148 620.529,659.148L449.824,659.148Z" style="fill:white;fill-rule:nonzero;"/>
                        <path id="path114" d="M620.529,848.843L449.825,848.843C443.381,848.843 438.157,843.619 438.157,837.175L438.157,666.471C438.157,660.027 443.381,654.803 449.825,654.803L620.529,654.803C626.973,654.803 632.197,660.027 632.197,666.471L632.197,837.175C632.197,843.619 626.973,848.843 620.529,848.843M620.529,840.155C622.172,840.155 623.508,838.818 623.508,837.175L623.508,666.471C623.508,664.828 622.172,663.491 620.529,663.491L449.825,663.491C448.182,663.491 446.845,664.828 446.845,666.471L446.845,837.175C446.845,838.818 448.182,840.155 449.825,840.155L620.529,840.155Z" style="fill:rgb(51,51,51);fill-rule:nonzero;"/>
                        <path id="path116" d="M656.824,38.148C652.786,38.148 649.501,41.433 649.501,45.471L649.501,216.176C649.501,220.214 652.786,223.5 656.824,223.5L827.529,223.5C831.567,223.5 834.852,220.214 834.852,216.176L834.852,45.471C834.852,41.433 831.567,38.148 827.529,38.148L656.824,38.148Z" style="fill:white;fill-rule:nonzero;"/>
                        <path id="path118" d="M827.529,227.843L656.825,227.843C650.381,227.843 645.157,222.619 645.157,216.175L645.157,45.471C645.157,39.027 650.381,33.803 656.825,33.803L827.529,33.803C833.973,33.803 839.197,39.027 839.197,45.471L839.197,216.175C839.197,222.619 833.973,227.843 827.529,227.843M827.529,219.155C829.172,219.155 830.508,217.818 830.508,216.175L830.508,45.471C830.508,43.828 829.172,42.491 827.529,42.491L656.825,42.491C655.182,42.491 653.845,43.828 653.845,45.471L653.845,216.175C653.845,217.818 655.182,219.155 656.825,219.155L827.529,219.155Z" style="fill:rgb(51,51,51);fill-rule:nonzero;"/>
                        <path id="path120" d="M656.824,245.148C652.786,245.148 649.501,248.433 649.501,252.471L649.501,423.176C649.501,427.214 652.786,430.5 656.824,430.5L827.529,430.5C831.567,430.5 834.852,427.214 834.852,423.176L834.852,252.471C834.852,248.433 831.567,245.148 827.529,245.148L656.824,245.148Z" style="fill:white;fill-rule:nonzero;"/>
                        <path id="path122" d="M827.529,434.843L656.825,434.843C650.381,434.843 645.157,429.619 645.157,423.175L645.157,252.471C645.157,246.027 650.381,240.803 656.825,240.803L827.529,240.803C833.973,240.803 839.197,246.027 839.197,252.471L839.197,423.175C839.197,429.619 833.973,434.843 827.529,434.843M827.529,426.155C829.172,426.155 830.508,424.818 830.508,423.175L830.508,252.471C830.508,250.828 829.172,249.491 827.529,249.491L656.825,249.491C655.182,249.491 653.845,250.828 653.845,252.471L653.845,423.175C653.845,424.818 655.182,426.155 656.825,426.155L827.529,426.155Z" style="fill:rgb(51,51,51);fill-rule:nonzero;"/>
                        <path id="path124" d="M656.824,452.148C652.786,452.148 649.501,455.433 649.501,459.472L649.501,630.176C649.501,634.214 652.786,637.5 656.824,637.5L827.529,637.5C831.567,637.5 834.852,634.214 834.852,630.176L834.852,459.472C834.852,455.433 831.567,452.148 827.529,452.148L656.824,452.148Z" style="fill:white;fill-rule:nonzero;"/>
                        <path id="path126" d="M827.529,641.843L656.825,641.843C650.381,641.843 645.157,636.619 645.157,630.175L645.157,459.471C645.157,453.027 650.381,447.803 656.825,447.803L827.529,447.803C833.973,447.803 839.197,453.027 839.197,459.471L839.197,630.175C839.197,636.619 833.973,641.843 827.529,641.843M827.529,633.155C829.172,633.155 830.508,631.818 830.508,630.175L830.508,459.471C830.508,457.828 829.172,456.491 827.529,456.491L656.825,456.491C655.182,456.491 653.845,457.828 653.845,459.471L653.845,630.175C653.845,631.818 655.182,633.155 656.825,633.155L827.529,633.155Z" style="fill:rgb(51,51,51);fill-rule:nonzero;"/>
                        <path id="path128" d="M656.824,659.148C652.786,659.148 649.501,662.433 649.501,666.472L649.501,837.176C649.501,841.214 652.786,844.5 656.824,844.5L827.529,844.5C831.567,844.5 834.852,841.214 834.852,837.176L834.852,666.472C834.852,662.433 831.567,659.148 827.529,659.148L656.824,659.148Z" style="fill:white;fill-rule:nonzero;"/>
                        <path id="path130" d="M827.529,848.843L656.825,848.843C650.381,848.843 645.157,843.619 645.157,837.175L645.157,666.471C645.157,660.027 650.381,654.803 656.825,654.803L827.529,654.803C833.973,654.803 839.197,660.027 839.197,666.471L839.197,837.175C839.197,843.619 833.973,848.843 827.529,848.843M827.529,840.155C829.172,840.155 830.508,838.818 830.508,837.175L830.508,666.471C830.508,664.828 829.172,663.491 827.529,663.491L656.825,663.491C655.182,663.491 653.845,664.828 653.845,666.471L653.845,837.175C653.845,838.818 655.182,840.155 656.825,840.155L827.529,840.155Z" style="fill:rgb(51,51,51);fill-rule:nonzero;"/>
                        <g transform="matrix(1,0,0,-1,47.7552,740.157)">
                            <g id="g132">
                                <g id="text136" transform="matrix(45,0,0,45,147.546,0)">
                                </g>
                                <text x="0px" y="0px" style="font-family:'Arial-BoldMT', 'Arial', sans-serif;font-weight:700;font-size:45px;">T<tspan x="25.005px 42.517px " y="0px 0px ">ra</tspan>nsp</text>
                            </g>
                        </g>
                        <g transform="matrix(0.993354,0,0,-1.0066,102.221,106.095)">
                            <g id="g138">
                                <g id="g140">
                                    <g id="text144" transform="matrix(69.5409,0,0,69.5409,38.6753,0)">
                                    </g>
                                    <text x="0px" y="0px" style="font-family:'Arial-BoldMT', 'Arial', sans-serif;font-weight:700;font-size:69.541px;">0</text>
                                </g>
                            </g>
                        </g>
                        <g transform="matrix(1,0,0,-1,308.216,313.556)">
                            <g id="g146">
                                <g id="text150" transform="matrix(70,0,0,70,38.9307,0)">
                                </g>
                                <text x="0px" y="0px" style="font-family:'Arial-BoldMT', 'Arial', sans-serif;font-weight:700;font-size:70px;">5</text>
                            </g>
                        </g>
                        <g transform="matrix(1,0,0,-1,311.634,106.095)">
                            <g id="g152">
                                <g id="text156">
                                    <g transform="matrix(70,0,0,70,38.9307,0)">
                                    </g>
                                    <text x="0px" y="0px" style="font-family:'Arial-BoldMT', 'Arial', sans-serif;font-weight:700;font-size:70px;">1</text>
                                </g>
                            </g>
                        </g>
                        <g transform="matrix(1,0,0,-1,288.204,519.078)">
                            <g id="g158">
                                <g id="text162">
                                    <g transform="matrix(70,0,0,70,77.8613,0)">
                                    </g>
                                    <text x="0px" y="0px" style="font-family:'Arial-BoldMT', 'Arial', sans-serif;font-weight:700;font-size:70px;">10</text>
                                </g>
                            </g>
                        </g>
                        <g transform="matrix(1,0,0,-1,249.141,735.981)">
                            <g id="g164">
                                <g id="text168" transform="matrix(45,0,0,45,157.5,0)">
                                </g>
                                <text x="0px" y="0px" style="font-family:'Arial-BoldMT', 'Arial', sans-serif;font-weight:700;font-size:45px;">Anchor</text>
                            </g>
                        </g>
                        <g transform="matrix(1,0,0,-1,487.628,735.982)">
                            <g id="g170">
                                <g id="text174" transform="matrix(45,0,0,45,92.4609,0)">
                                </g>
                                <text x="0px" y="0px" style="font-family:'Arial-BoldMT', 'Arial', sans-serif;font-weight:700;font-size:45px;">Mult</text>
                            </g>
                        </g>
                        <g transform="matrix(1,0,0,-1,501.099,519.668)">
                            <g id="g176">
                                <g id="text180" transform="matrix(70,0,0,70,73.999,0)">
                                </g>
                                <text x="0px" y="0px" style="font-family:'Arial-BoldMT', 'Arial', sans-serif;font-weight:700;font-size:70px;">1<tspan x="35.068px " y="0px ">1</tspan></text>
                            </g>
                        </g>
                        <g transform="matrix(1,0,0,-1,516.6,106.095)">
                            <g id="g182">
                                <g id="text186" transform="matrix(70,0,0,70,38.9307,0)">
                                </g>
                                <text x="0px" y="0px" style="font-family:'Arial-BoldMT', 'Arial', sans-serif;font-weight:700;font-size:70px;">2</text>
                            </g>
                        </g>
                        <g id="g188">
                        </g>
                        <g transform="matrix(1.06066,0,0,-1.06066,726.936,318.425)">
                            <g id="g196">
                                <g id="g198">
                                    <g id="text202">
                                        <g transform="matrix(51.8543,0,0,51.8543,28.8389,0)">
                                        </g>
                                        <text x="0px" y="0px" style="font-family:'Arial-BoldMT', 'Arial', sans-serif;font-weight:700;font-size:51.854px;">7</text>
                                    </g>
                                </g>
                            </g>
                        </g>
                        <g id="g204">
                        </g>
                        <g transform="matrix(1,0,0,-1,722.899,106.095)">
                            <g id="g212">
                                <g id="text216">
                                    <g transform="matrix(70,0,0,70,38.9307,0)">
                                    </g>
                                    <text x="0px" y="0px" style="font-family:'Arial-BoldMT', 'Arial', sans-serif;font-weight:700;font-size:70px;">3</text>
                                </g>
                            </g>
                        </g>
                        <g transform="matrix(1,0,0,-1,658.824,736.004)">
                            <g id="g218">
                                <g id="text222">
                                    <g transform="matrix(45,0,0,45,167.498,0)">
                                    </g>
                                    <text x="0px" y="0px" style="font-family:'Arial-BoldMT', 'Arial', sans-serif;font-weight:700;font-size:45px;">Custom</text>
                                </g>
                            </g>
                        </g>
                        <g transform="matrix(1,0,0,-1,702.238,519.668)">
                            <g id="g224">
                                <g id="text228">
                                    <g transform="matrix(70,0,0,70,77.8613,0)">
                                    </g>
                                    <text x="0px" y="0px" style="font-family:'Arial-BoldMT', 'Arial', sans-serif;font-weight:700;font-size:70px;">12</text>
                                </g>
                            </g>
                        </g>
                        <g transform="matrix(1,0,0,-1,515.472,313.626)">
                            <g id="g230">
                                <g id="text234" transform="matrix(70,0,0,70,38.9307,0)">
                                </g>
                                <text x="0px" y="0px" style="font-family:'Arial-BoldMT', 'Arial', sans-serif;font-weight:700;font-size:70px;">6</text>
                            </g>
                        </g>
                        <g transform="matrix(1,0,0,-1,102.224,519.112)">
                            <g id="g236">
                                <g id="text240" transform="matrix(70,0,0,70,38.9307,0)">
                                </g>
                                <text x="0px" y="0px" style="font-family:'Arial-BoldMT', 'Arial', sans-serif;font-weight:700;font-size:70px;">9</text>
                            </g>
                        </g>
                        <g transform="matrix(0.93541,0,0,-1.06066,104.146,312.668)">
                            <g id="g242">
                                <g id="g244">
                                    <g id="text248" transform="matrix(65.9964,0,0,65.9964,36.7041,0)">
                                    </g>
                                    <text x="0px" y="0px" style="font-family:'Arial-BoldMT', 'Arial', sans-serif;font-weight:700;font-size:65.996px;">4</text>
                                </g>
                            </g>
                        </g>
                    </g>
                </g>
            </g>
        </g>
    </g>
</svg>
