<?xml version="1.0" encoding="UTF-8" standalone="no"?>
<svg
   xmlns:dc="http://purl.org/dc/elements/1.1/"
   xmlns:cc="http://creativecommons.org/ns#"
   xmlns:rdf="http://www.w3.org/1999/02/22-rdf-syntax-ns#"
   xmlns:svg="http://www.w3.org/2000/svg"
   xmlns="http://www.w3.org/2000/svg"
   viewBox="0 0 1154.6667 1161.3333"
   height="1161.3333"
   width="1154.6667"
   xml:space="preserve"
   id="svg2"
   version="1.1"><metadata
     id="metadata8"><rdf:RDF><cc:Work
         rdf:about=""><dc:format>image/svg+xml</dc:format><dc:type
           rdf:resource="http://purl.org/dc/dcmitype/StillImage" /></cc:Work></rdf:RDF></metadata><defs
     id="defs6"><clipPath
       id="clipPath18"
       clipPathUnits="userSpaceOnUse"><path
         style="clip-rule:evenodd"
         id="path16"
         d="M 0,0 H 866 V 871 H 0 Z" /></clipPath></defs><g
     transform="matrix(1.3333333,0,0,-1.3333333,0,1161.3333)"
     id="g10"><g
       id="g12"><g
         clip-path="url(#clipPath18)"
         id="g14"><path
           id="path20"
           style="fill:none;stroke:#666666;stroke-width:19.35300064;stroke-linecap:butt;stroke-linejoin:miter;stroke-miterlimit:10;stroke-dasharray:none;stroke-opacity:1"
           d="m 9.677,10.325 h 846 v 850.999 h -846 z" /><path
           id="path22"
           style="fill:none;stroke:#b3b3b3;stroke-width:19;stroke-linecap:butt;stroke-linejoin:miter;stroke-miterlimit:10;stroke-dasharray:none;stroke-opacity:1"
           d="m 18.677,27.323 h 827 v 827 h -827 z" /><path
           id="path24"
           style="fill:none;stroke:#b3b3b3;stroke-width:19;stroke-linecap:butt;stroke-linejoin:miter;stroke-miterlimit:10;stroke-dasharray:none;stroke-opacity:1"
           d="M 18.6767,234.073 H 845.677" /><path
           id="path26"
           style="fill:none;stroke:#b3b3b3;stroke-width:19;stroke-linecap:butt;stroke-linejoin:miter;stroke-miterlimit:10;stroke-dasharray:none;stroke-opacity:1"
           d="M 18.6767,440.823 H 845.677" /><path
           id="path28"
           style="fill:none;stroke:#b3b3b3;stroke-width:19;stroke-linecap:butt;stroke-linejoin:miter;stroke-miterlimit:10;stroke-dasharray:none;stroke-opacity:1"
           d="M 18.6767,647.573 H 845.677" /><path
           id="path30"
           style="fill:none;stroke:#b3b3b3;stroke-width:19;stroke-linecap:butt;stroke-linejoin:miter;stroke-miterlimit:10;stroke-dasharray:none;stroke-opacity:1"
           d="M 638.927,854.323 V 27.3233" /><path
           id="path32"
           style="fill:none;stroke:#b3b3b3;stroke-width:19;stroke-linecap:butt;stroke-linejoin:miter;stroke-miterlimit:10;stroke-dasharray:none;stroke-opacity:1"
           d="M 432.177,854.323 V 27.3233" /><path
           id="path34"
           style="fill:none;stroke:#b3b3b3;stroke-width:19;stroke-linecap:butt;stroke-linejoin:miter;stroke-miterlimit:10;stroke-dasharray:none;stroke-opacity:1"
           d="M 225.427,854.323 V 27.3233" /><path
           id="path36"
           style="fill:#808080;fill-opacity:1;fill-rule:nonzero;stroke:none"
           d="M 206.529,842.843 H 35.8249 c -6.444,0 -11.668,-5.224 -11.668,-11.668 V 660.471 c 0,-6.444 5.224,-11.668 11.668,-11.668 H 206.529 c 6.444,0 11.668,5.224 11.668,11.668 v 170.704 c 0,6.444 -5.224,11.668 -11.668,11.668 m 0,-7 c 2.574,0 4.668,-2.094 4.668,-4.668 V 660.471 c 0,-2.574 -2.094,-4.668 -4.668,-4.668 H 35.8249 c -2.574,0 -4.668,2.094 -4.668,4.668 v 170.704 c 0,2.574 2.094,4.668 4.668,4.668 z" /><path
           id="path38"
           style="fill:#808080;fill-opacity:1;fill-rule:nonzero;stroke:none"
           d="M 206.529,634.843 H 35.8249 c -6.444,0 -11.668,-5.224 -11.668,-11.668 V 452.471 c 0,-6.444 5.224,-11.668 11.668,-11.668 H 206.529 c 6.444,0 11.668,5.224 11.668,11.668 v 170.704 c 0,6.444 -5.224,11.668 -11.668,11.668 m 0,-7 c 2.574,0 4.668,-2.094 4.668,-4.668 V 452.471 c 0,-2.574 -2.094,-4.668 -4.668,-4.668 H 35.8249 c -2.574,0 -4.668,2.094 -4.668,4.668 v 170.704 c 0,2.574 2.094,4.668 4.668,4.668 z" /><path
           id="path40"
           style="fill:#808080;fill-opacity:1;fill-rule:nonzero;stroke:none"
           d="M 206.529,428.843 H 35.8249 c -6.444,0 -11.668,-5.224 -11.668,-11.668 V 246.471 c 0,-6.444 5.224,-11.668 11.668,-11.668 H 206.529 c 6.444,0 11.668,5.224 11.668,11.668 v 170.704 c 0,6.444 -5.224,11.668 -11.668,11.668 m 0,-7 c 2.574,0 4.668,-2.094 4.668,-4.668 V 246.471 c 0,-2.574 -2.094,-4.668 -4.668,-4.668 H 35.8249 c -2.574,0 -4.668,2.094 -4.668,4.668 v 170.704 c 0,2.574 2.094,4.668 4.668,4.668 z" /><path
           id="path42"
           style="fill:#808080;fill-opacity:1;fill-rule:nonzero;stroke:none"
           d="M 206.529,221.843 H 35.8249 c -6.444,0 -11.668,-5.224 -11.668,-11.668 V 39.4713 c 0,-6.444 5.224,-11.668 11.668,-11.668 H 206.529 c 6.444,0 11.668,5.224 11.668,11.668 V 210.175 c 0,6.444 -5.224,11.668 -11.668,11.668 m 0,-7 c 2.574,0 4.668,-2.094 4.668,-4.668 V 39.4713 c 0,-2.574 -2.094,-4.668 -4.668,-4.668 H 35.8249 c -2.574,0 -4.668,2.094 -4.668,4.668 V 210.175 c 0,2.574 2.094,4.668 4.668,4.668 z" /><path
           id="path44"
           style="fill:#808080;fill-opacity:1;fill-rule:nonzero;stroke:none"
           d="M 413.529,221.843 H 242.824 c -6.443,0 -11.667,-5.224 -11.667,-11.668 V 39.4713 c 0,-6.444 5.224,-11.668 11.667,-11.668 h 170.705 c 6.444,0 11.668,5.224 11.668,11.668 V 210.175 c 0,6.444 -5.224,11.668 -11.668,11.668 m 0,-7 c 2.574,0 4.668,-2.094 4.668,-4.668 V 39.4713 c 0,-2.574 -2.094,-4.668 -4.668,-4.668 H 242.824 c -2.573,0 -4.667,2.094 -4.667,4.668 V 210.175 c 0,2.574 2.094,4.668 4.667,4.668 z" /><path
           id="path46"
           style="fill:#808080;fill-opacity:1;fill-rule:nonzero;stroke:none"
           d="M 413.529,428.843 H 242.824 c -6.443,0 -11.667,-5.224 -11.667,-11.668 V 246.471 c 0,-6.444 5.224,-11.668 11.667,-11.668 h 170.705 c 6.444,0 11.668,5.224 11.668,11.668 v 170.704 c 0,6.444 -5.224,11.668 -11.668,11.668 m 0,-7 c 2.574,0 4.668,-2.094 4.668,-4.668 V 246.471 c 0,-2.574 -2.094,-4.668 -4.668,-4.668 H 242.824 c -2.573,0 -4.667,2.094 -4.667,4.668 v 170.704 c 0,2.574 2.094,4.668 4.667,4.668 z" /><path
           id="path48"
           style="fill:#808080;fill-opacity:1;fill-rule:nonzero;stroke:none"
           d="M 413.529,635.843 H 242.824 c -6.443,0 -11.667,-5.224 -11.667,-11.668 V 453.471 c 0,-6.444 5.224,-11.668 11.667,-11.668 h 170.705 c 6.444,0 11.668,5.224 11.668,11.668 v 170.704 c 0,6.444 -5.224,11.668 -11.668,11.668 m 0,-7 c 2.574,0 4.668,-2.094 4.668,-4.668 V 453.471 c 0,-2.574 -2.094,-4.668 -4.668,-4.668 H 242.824 c -2.573,0 -4.667,2.094 -4.667,4.668 v 170.704 c 0,2.574 2.094,4.668 4.667,4.668 z" /><path
           id="path50"
           style="fill:#808080;fill-opacity:1;fill-rule:nonzero;stroke:none"
           d="M 413.529,842.843 H 242.824 c -6.443,0 -11.667,-5.224 -11.667,-11.668 V 660.471 c 0,-6.444 5.224,-11.668 11.667,-11.668 h 170.705 c 6.444,0 11.668,5.224 11.668,11.668 v 170.704 c 0,6.444 -5.224,11.668 -11.668,11.668 m 0,-7 c 2.574,0 4.668,-2.094 4.668,-4.668 V 660.471 c 0,-2.574 -2.094,-4.668 -4.668,-4.668 H 242.824 c -2.573,0 -4.667,2.094 -4.667,4.668 v 170.704 c 0,2.574 2.094,4.668 4.667,4.668 z" /><path
           id="path52"
           style="fill:#808080;fill-opacity:1;fill-rule:nonzero;stroke:none"
           d="M 620.529,221.843 H 449.825 c -6.444,0 -11.668,-5.224 -11.668,-11.668 V 39.4713 c 0,-6.444 5.224,-11.668 11.668,-11.668 h 170.704 c 6.444,0 11.668,5.224 11.668,11.668 V 210.175 c 0,6.444 -5.224,11.668 -11.668,11.668 m 0,-7 c 2.574,0 4.668,-2.094 4.668,-4.668 V 39.4713 c 0,-2.574 -2.094,-4.668 -4.668,-4.668 H 449.825 c -2.574,0 -4.668,2.094 -4.668,4.668 V 210.175 c 0,2.574 2.094,4.668 4.668,4.668 z" /><path
           id="path54"
           style="fill:#808080;fill-opacity:1;fill-rule:nonzero;stroke:none"
           d="M 620.529,428.843 H 449.825 c -6.444,0 -11.668,-5.224 -11.668,-11.668 V 246.471 c 0,-6.444 5.224,-11.668 11.668,-11.668 h 170.704 c 6.444,0 11.668,5.224 11.668,11.668 v 170.704 c 0,6.444 -5.224,11.668 -11.668,11.668 m 0,-7 c 2.574,0 4.668,-2.094 4.668,-4.668 V 246.471 c 0,-2.574 -2.094,-4.668 -4.668,-4.668 H 449.825 c -2.574,0 -4.668,2.094 -4.668,4.668 v 170.704 c 0,2.574 2.094,4.668 4.668,4.668 z" /><path
           id="path56"
           style="fill:#808080;fill-opacity:1;fill-rule:nonzero;stroke:none"
           d="M 620.529,635.843 H 449.825 c -6.444,0 -11.668,-5.224 -11.668,-11.668 V 453.471 c 0,-6.444 5.224,-11.668 11.668,-11.668 h 170.704 c 6.444,0 11.668,5.224 11.668,11.668 v 170.704 c 0,6.444 -5.224,11.668 -11.668,11.668 m 0,-7 c 2.574,0 4.668,-2.094 4.668,-4.668 V 453.471 c 0,-2.574 -2.094,-4.668 -4.668,-4.668 H 449.825 c -2.574,0 -4.668,2.094 -4.668,4.668 v 170.704 c 0,2.574 2.094,4.668 4.668,4.668 z" /><path
           id="path58"
           style="fill:#808080;fill-opacity:1;fill-rule:nonzero;stroke:none"
           d="M 620.529,842.843 H 449.825 c -6.444,0 -11.668,-5.224 -11.668,-11.668 V 660.471 c 0,-6.444 5.224,-11.668 11.668,-11.668 h 170.704 c 6.444,0 11.668,5.224 11.668,11.668 v 170.704 c 0,6.444 -5.224,11.668 -11.668,11.668 m 0,-7 c 2.574,0 4.668,-2.094 4.668,-4.668 V 660.471 c 0,-2.574 -2.094,-4.668 -4.668,-4.668 H 449.825 c -2.574,0 -4.668,2.094 -4.668,4.668 v 170.704 c 0,2.574 2.094,4.668 4.668,4.668 z" /><path
           id="path60"
           style="fill:#808080;fill-opacity:1;fill-rule:nonzero;stroke:none"
           d="M 827.529,221.843 H 656.825 c -6.444,0 -11.668,-5.224 -11.668,-11.668 V 39.4713 c 0,-6.444 5.224,-11.668 11.668,-11.668 h 170.704 c 6.444,0 11.668,5.224 11.668,11.668 V 210.175 c 0,6.444 -5.224,11.668 -11.668,11.668 m 0,-7 c 2.574,0 4.668,-2.094 4.668,-4.668 V 39.4713 c 0,-2.574 -2.094,-4.668 -4.668,-4.668 H 656.825 c -2.574,0 -4.668,2.094 -4.668,4.668 V 210.175 c 0,2.574 2.094,4.668 4.668,4.668 z" /><path
           id="path62"
           style="fill:#808080;fill-opacity:1;fill-rule:nonzero;stroke:none"
           d="M 827.529,428.843 H 656.825 c -6.444,0 -11.668,-5.224 -11.668,-11.668 V 246.471 c 0,-6.444 5.224,-11.668 11.668,-11.668 h 170.704 c 6.444,0 11.668,5.224 11.668,11.668 v 170.704 c 0,6.444 -5.224,11.668 -11.668,11.668 m 0,-7 c 2.574,0 4.668,-2.094 4.668,-4.668 V 246.471 c 0,-2.574 -2.094,-4.668 -4.668,-4.668 H 656.825 c -2.574,0 -4.668,2.094 -4.668,4.668 v 170.704 c 0,2.574 2.094,4.668 4.668,4.668 z" /><path
           id="path64"
           style="fill:#808080;fill-opacity:1;fill-rule:nonzero;stroke:none"
           d="M 827.529,635.843 H 656.825 c -6.444,0 -11.668,-5.224 -11.668,-11.668 V 453.471 c 0,-6.444 5.224,-11.668 11.668,-11.668 h 170.704 c 6.444,0 11.668,5.224 11.668,11.668 v 170.704 c 0,6.444 -5.224,11.668 -11.668,11.668 m 0,-7 c 2.574,0 4.668,-2.094 4.668,-4.668 V 453.471 c 0,-2.574 -2.094,-4.668 -4.668,-4.668 H 656.825 c -2.574,0 -4.668,2.094 -4.668,4.668 v 170.704 c 0,2.574 2.094,4.668 4.668,4.668 z" /><path
           id="path66"
           style="fill:#808080;fill-opacity:1;fill-rule:nonzero;stroke:none"
           d="M 827.529,842.843 H 656.825 c -6.444,0 -11.668,-5.224 -11.668,-11.668 V 660.471 c 0,-6.444 5.224,-11.668 11.668,-11.668 h 170.704 c 6.444,0 11.668,5.224 11.668,11.668 v 170.704 c 0,6.444 -5.224,11.668 -11.668,11.668 m 0,-7 c 2.574,0 4.668,-2.094 4.668,-4.668 V 660.471 c 0,-2.574 -2.094,-4.668 -4.668,-4.668 H 656.825 c -2.574,0 -4.668,2.094 -4.668,4.668 v 170.704 c 0,2.574 2.094,4.668 4.668,4.668 z" /><path
           id="path68"
           style="fill:#ffffff;fill-opacity:1;fill-rule:nonzero;stroke:none"
           d="m 35.8247,659.148 c -4.039,0 -7.324,3.285 -7.324,7.324 v 170.704 c 0,4.038 3.285,7.324 7.324,7.324 H 206.529 c 4.039,0 7.324,-3.286 7.324,-7.324 V 666.472 c 0,-4.039 -3.285,-7.324 -7.324,-7.324 z" /><path
           id="path70"
           style="fill:#333333;fill-opacity:1;fill-rule:nonzero;stroke:none"
           d="M 206.529,848.843 H 35.825 c -6.444,0 -11.668,-5.224 -11.668,-11.668 V 666.471 c 0,-6.444 5.224,-11.668 11.668,-11.668 h 170.704 c 6.444,0 11.668,5.224 11.668,11.668 v 170.704 c 0,6.444 -5.224,11.668 -11.668,11.668 m 0,-8.688 c 1.643,0 2.979,-1.337 2.979,-2.98 V 666.471 c 0,-1.643 -1.336,-2.98 -2.979,-2.98 H 35.825 c -1.643,0 -2.98,1.337 -2.98,2.98 v 170.704 c 0,1.643 1.337,2.98 2.98,2.98 z" /><path
           id="path72"
           style="fill:#ffffff;fill-opacity:1;fill-rule:nonzero;stroke:none"
           d="m 35.8247,451.148 c -4.039,0 -7.324,3.285 -7.324,7.324 v 170.704 c 0,4.038 3.285,7.324 7.324,7.324 H 206.529 c 4.039,0 7.324,-3.286 7.324,-7.324 V 458.472 c 0,-4.039 -3.285,-7.324 -7.324,-7.324 z" /><path
           id="path74"
           style="fill:#333333;fill-opacity:1;fill-rule:nonzero;stroke:none"
           d="M 206.529,640.843 H 35.825 c -6.444,0 -11.668,-5.224 -11.668,-11.668 V 458.471 c 0,-6.444 5.224,-11.668 11.668,-11.668 h 170.704 c 6.444,0 11.668,5.224 11.668,11.668 v 170.704 c 0,6.444 -5.224,11.668 -11.668,11.668 m 0,-8.688 c 1.643,0 2.979,-1.337 2.979,-2.98 V 458.471 c 0,-1.643 -1.336,-2.98 -2.979,-2.98 H 35.825 c -1.643,0 -2.98,1.337 -2.98,2.98 v 170.704 c 0,1.643 1.337,2.98 2.98,2.98 z" /><path
           id="path76"
           style="fill:#ffffff;fill-opacity:1;fill-rule:nonzero;stroke:none"
           d="m 35.8247,245.148 c -4.039,0 -7.324,3.285 -7.324,7.323 v 170.705 c 0,4.038 3.285,7.324 7.324,7.324 H 206.529 c 4.039,0 7.324,-3.286 7.324,-7.324 V 252.471 c 0,-4.038 -3.285,-7.323 -7.324,-7.323 z" /><path
           id="path78"
           style="fill:#333333;fill-opacity:1;fill-rule:nonzero;stroke:none"
           d="M 206.529,434.843 H 35.825 c -6.444,0 -11.668,-5.224 -11.668,-11.668 V 252.471 c 0,-6.444 5.224,-11.668 11.668,-11.668 h 170.704 c 6.444,0 11.668,5.224 11.668,11.668 v 170.704 c 0,6.444 -5.224,11.668 -11.668,11.668 m 0,-8.688 c 1.643,0 2.979,-1.337 2.979,-2.98 V 252.471 c 0,-1.643 -1.336,-2.98 -2.979,-2.98 H 35.825 c -1.643,0 -2.98,1.337 -2.98,2.98 v 170.704 c 0,1.643 1.337,2.98 2.98,2.98 z" /><path
           id="path80"
           style="fill:#ffffff;fill-opacity:1;fill-rule:nonzero;stroke:none"
           d="m 35.8247,38.1475 c -4.039,0 -7.324,3.285 -7.324,7.323 V 216.176 c 0,4.038 3.285,7.324 7.324,7.324 H 206.529 c 4.039,0 7.324,-3.286 7.324,-7.324 V 45.4705 c 0,-4.038 -3.285,-7.323 -7.324,-7.323 z" /><path
           id="path82"
           style="fill:#333333;fill-opacity:1;fill-rule:nonzero;stroke:none"
           d="M 206.529,227.843 H 35.825 c -6.444,0 -11.668,-5.224 -11.668,-11.668 V 45.4713 c 0,-6.444 5.224,-11.668 11.668,-11.668 h 170.704 c 6.444,0 11.668,5.224 11.668,11.668 V 216.175 c 0,6.444 -5.224,11.668 -11.668,11.668 m 0,-8.688 c 1.643,0 2.979,-1.337 2.979,-2.98 V 45.4713 c 0,-1.643 -1.336,-2.98 -2.979,-2.98 H 35.825 c -1.643,0 -2.98,1.337 -2.98,2.98 V 216.175 c 0,1.643 1.337,2.98 2.98,2.98 z" /><path
           id="path84"
           style="fill:#ffffff;fill-opacity:1;fill-rule:nonzero;stroke:none"
           d="m 242.825,38.1475 c -4.039,0 -7.324,3.285 -7.324,7.323 V 216.176 c 0,4.038 3.285,7.324 7.324,7.324 h 170.704 c 4.039,0 7.324,-3.286 7.324,-7.324 V 45.4705 c 0,-4.038 -3.285,-7.323 -7.324,-7.323 z" /><path
           id="path86"
           style="fill:#333333;fill-opacity:1;fill-rule:nonzero;stroke:none"
           d="M 413.529,227.843 H 242.825 c -6.444,0 -11.668,-5.224 -11.668,-11.668 V 45.4713 c 0,-6.444 5.224,-11.668 11.668,-11.668 h 170.704 c 6.444,0 11.668,5.224 11.668,11.668 V 216.175 c 0,6.444 -5.224,11.668 -11.668,11.668 m 0,-8.688 c 1.643,0 2.979,-1.337 2.979,-2.98 V 45.4713 c 0,-1.643 -1.336,-2.98 -2.979,-2.98 H 242.825 c -1.643,0 -2.98,1.337 -2.98,2.98 V 216.175 c 0,1.643 1.337,2.98 2.98,2.98 z" /><path
           id="path88"
           style="fill:#ffffff;fill-opacity:1;fill-rule:nonzero;stroke:none"
           d="m 242.825,245.148 c -4.039,0 -7.324,3.285 -7.324,7.323 v 170.705 c 0,4.038 3.285,7.324 7.324,7.324 h 170.704 c 4.039,0 7.324,-3.286 7.324,-7.324 V 252.471 c 0,-4.038 -3.285,-7.323 -7.324,-7.323 z" /><path
           id="path90"
           style="fill:#333333;fill-opacity:1;fill-rule:nonzero;stroke:none"
           d="M 413.529,434.843 H 242.825 c -6.444,0 -11.668,-5.224 -11.668,-11.668 V 252.471 c 0,-6.444 5.224,-11.668 11.668,-11.668 h 170.704 c 6.444,0 11.668,5.224 11.668,11.668 v 170.704 c 0,6.444 -5.224,11.668 -11.668,11.668 m 0,-8.688 c 1.643,0 2.979,-1.337 2.979,-2.98 V 252.471 c 0,-1.643 -1.336,-2.98 -2.979,-2.98 H 242.825 c -1.643,0 -2.98,1.337 -2.98,2.98 v 170.704 c 0,1.643 1.337,2.98 2.98,2.98 z" /><path
           id="path92"
           style="fill:#ffffff;fill-opacity:1;fill-rule:nonzero;stroke:none"
           d="m 242.825,452.148 c -4.039,0 -7.324,3.285 -7.324,7.324 v 170.704 c 0,4.038 3.285,7.324 7.324,7.324 h 170.704 c 4.039,0 7.324,-3.286 7.324,-7.324 V 459.472 c 0,-4.039 -3.285,-7.324 -7.324,-7.324 z" /><path
           id="path94"
           style="fill:#333333;fill-opacity:1;fill-rule:nonzero;stroke:none"
           d="M 413.529,641.843 H 242.825 c -6.444,0 -11.668,-5.224 -11.668,-11.668 V 459.471 c 0,-6.444 5.224,-11.668 11.668,-11.668 h 170.704 c 6.444,0 11.668,5.224 11.668,11.668 v 170.704 c 0,6.444 -5.224,11.668 -11.668,11.668 m 0,-8.688 c 1.643,0 2.979,-1.337 2.979,-2.98 V 459.471 c 0,-1.643 -1.336,-2.98 -2.979,-2.98 H 242.825 c -1.643,0 -2.98,1.337 -2.98,2.98 v 170.704 c 0,1.643 1.337,2.98 2.98,2.98 z" /><path
           id="path96"
           style="fill:#ffffff;fill-opacity:1;fill-rule:nonzero;stroke:none"
           d="m 242.825,659.148 c -4.039,0 -7.324,3.285 -7.324,7.324 v 170.704 c 0,4.038 3.285,7.324 7.324,7.324 h 170.704 c 4.039,0 7.324,-3.286 7.324,-7.324 V 666.472 c 0,-4.039 -3.285,-7.324 -7.324,-7.324 z" /><path
           id="path98"
           style="fill:#333333;fill-opacity:1;fill-rule:nonzero;stroke:none"
           d="M 413.529,848.843 H 242.825 c -6.444,0 -11.668,-5.224 -11.668,-11.668 V 666.471 c 0,-6.444 5.224,-11.668 11.668,-11.668 h 170.704 c 6.444,0 11.668,5.224 11.668,11.668 v 170.704 c 0,6.444 -5.224,11.668 -11.668,11.668 m 0,-8.688 c 1.643,0 2.979,-1.337 2.979,-2.98 V 666.471 c 0,-1.643 -1.336,-2.98 -2.979,-2.98 H 242.825 c -1.643,0 -2.98,1.337 -2.98,2.98 v 170.704 c 0,1.643 1.337,2.98 2.98,2.98 z" /><path
           id="path100"
           style="fill:#ffffff;fill-opacity:1;fill-rule:nonzero;stroke:none"
           d="m 449.824,38.1475 c -4.038,0 -7.323,3.285 -7.323,7.323 V 216.176 c 0,4.038 3.285,7.324 7.323,7.324 h 170.705 c 4.038,0 7.323,-3.286 7.323,-7.324 V 45.4705 c 0,-4.038 -3.285,-7.323 -7.323,-7.323 z" /><path
           id="path102"
           style="fill:#333333;fill-opacity:1;fill-rule:nonzero;stroke:none"
           d="M 620.529,227.843 H 449.825 c -6.444,0 -11.668,-5.224 -11.668,-11.668 V 45.4713 c 0,-6.444 5.224,-11.668 11.668,-11.668 h 170.704 c 6.444,0 11.668,5.224 11.668,11.668 V 216.175 c 0,6.444 -5.224,11.668 -11.668,11.668 m 0,-8.688 c 1.643,0 2.979,-1.337 2.979,-2.98 V 45.4713 c 0,-1.643 -1.336,-2.98 -2.979,-2.98 H 449.825 c -1.643,0 -2.98,1.337 -2.98,2.98 V 216.175 c 0,1.643 1.337,2.98 2.98,2.98 z" /><path
           id="path104"
           style="fill:#ffffff;fill-opacity:1;fill-rule:nonzero;stroke:none"
           d="m 449.824,245.148 c -4.038,0 -7.323,3.285 -7.323,7.323 v 170.705 c 0,4.038 3.285,7.324 7.323,7.324 h 170.705 c 4.038,0 7.323,-3.286 7.323,-7.324 V 252.471 c 0,-4.038 -3.285,-7.323 -7.323,-7.323 z" /><path
           id="path106"
           style="fill:#333333;fill-opacity:1;fill-rule:nonzero;stroke:none"
           d="M 620.529,434.843 H 449.825 c -6.444,0 -11.668,-5.224 -11.668,-11.668 V 252.471 c 0,-6.444 5.224,-11.668 11.668,-11.668 h 170.704 c 6.444,0 11.668,5.224 11.668,11.668 v 170.704 c 0,6.444 -5.224,11.668 -11.668,11.668 m 0,-8.688 c 1.643,0 2.979,-1.337 2.979,-2.98 V 252.471 c 0,-1.643 -1.336,-2.98 -2.979,-2.98 H 449.825 c -1.643,0 -2.98,1.337 -2.98,2.98 v 170.704 c 0,1.643 1.337,2.98 2.98,2.98 z" /><path
           id="path108"
           style="fill:#ffffff;fill-opacity:1;fill-rule:nonzero;stroke:none"
           d="m 449.824,452.148 c -4.038,0 -7.323,3.285 -7.323,7.324 v 170.704 c 0,4.038 3.285,7.324 7.323,7.324 h 170.705 c 4.038,0 7.323,-3.286 7.323,-7.324 V 459.472 c 0,-4.039 -3.285,-7.324 -7.323,-7.324 z" /><path
           id="path110"
           style="fill:#333333;fill-opacity:1;fill-rule:nonzero;stroke:none"
           d="M 620.529,641.843 H 449.825 c -6.444,0 -11.668,-5.224 -11.668,-11.668 V 459.471 c 0,-6.444 5.224,-11.668 11.668,-11.668 h 170.704 c 6.444,0 11.668,5.224 11.668,11.668 v 170.704 c 0,6.444 -5.224,11.668 -11.668,11.668 m 0,-8.688 c 1.643,0 2.979,-1.337 2.979,-2.98 V 459.471 c 0,-1.643 -1.336,-2.98 -2.979,-2.98 H 449.825 c -1.643,0 -2.98,1.337 -2.98,2.98 v 170.704 c 0,1.643 1.337,2.98 2.98,2.98 z" /><path
           id="path112"
           style="fill:#ffffff;fill-opacity:1;fill-rule:nonzero;stroke:none"
           d="m 449.824,659.148 c -4.038,0 -7.323,3.285 -7.323,7.324 v 170.704 c 0,4.038 3.285,7.324 7.323,7.324 h 170.705 c 4.038,0 7.323,-3.286 7.323,-7.324 V 666.472 c 0,-4.039 -3.285,-7.324 -7.323,-7.324 z" /><path
           id="path114"
           style="fill:#333333;fill-opacity:1;fill-rule:nonzero;stroke:none"
           d="M 620.529,848.843 H 449.825 c -6.444,0 -11.668,-5.224 -11.668,-11.668 V 666.471 c 0,-6.444 5.224,-11.668 11.668,-11.668 h 170.704 c 6.444,0 11.668,5.224 11.668,11.668 v 170.704 c 0,6.444 -5.224,11.668 -11.668,11.668 m 0,-8.688 c 1.643,0 2.979,-1.337 2.979,-2.98 V 666.471 c 0,-1.643 -1.336,-2.98 -2.979,-2.98 H 449.825 c -1.643,0 -2.98,1.337 -2.98,2.98 v 170.704 c 0,1.643 1.337,2.98 2.98,2.98 z" /><path
           id="path116"
           style="fill:#ffffff;fill-opacity:1;fill-rule:nonzero;stroke:none"
           d="m 656.824,38.1475 c -4.038,0 -7.323,3.285 -7.323,7.323 V 216.176 c 0,4.038 3.285,7.324 7.323,7.324 h 170.705 c 4.038,0 7.323,-3.286 7.323,-7.324 V 45.4705 c 0,-4.038 -3.285,-7.323 -7.323,-7.323 z" /><path
           id="path118"
           style="fill:#333333;fill-opacity:1;fill-rule:nonzero;stroke:none"
           d="M 827.529,227.843 H 656.825 c -6.444,0 -11.668,-5.224 -11.668,-11.668 V 45.4713 c 0,-6.444 5.224,-11.668 11.668,-11.668 h 170.704 c 6.444,0 11.668,5.224 11.668,11.668 V 216.175 c 0,6.444 -5.224,11.668 -11.668,11.668 m 0,-8.688 c 1.643,0 2.979,-1.337 2.979,-2.98 V 45.4713 c 0,-1.643 -1.336,-2.98 -2.979,-2.98 H 656.825 c -1.643,0 -2.98,1.337 -2.98,2.98 V 216.175 c 0,1.643 1.337,2.98 2.98,2.98 z" /><path
           id="path120"
           style="fill:#ffffff;fill-opacity:1;fill-rule:nonzero;stroke:none"
           d="m 656.824,245.148 c -4.038,0 -7.323,3.285 -7.323,7.323 v 170.705 c 0,4.038 3.285,7.324 7.323,7.324 h 170.705 c 4.038,0 7.323,-3.286 7.323,-7.324 V 252.471 c 0,-4.038 -3.285,-7.323 -7.323,-7.323 z" /><path
           id="path122"
           style="fill:#333333;fill-opacity:1;fill-rule:nonzero;stroke:none"
           d="M 827.529,434.843 H 656.825 c -6.444,0 -11.668,-5.224 -11.668,-11.668 V 252.471 c 0,-6.444 5.224,-11.668 11.668,-11.668 h 170.704 c 6.444,0 11.668,5.224 11.668,11.668 v 170.704 c 0,6.444 -5.224,11.668 -11.668,11.668 m 0,-8.688 c 1.643,0 2.979,-1.337 2.979,-2.98 V 252.471 c 0,-1.643 -1.336,-2.98 -2.979,-2.98 H 656.825 c -1.643,0 -2.98,1.337 -2.98,2.98 v 170.704 c 0,1.643 1.337,2.98 2.98,2.98 z" /><path
           id="path124"
           style="fill:#ffffff;fill-opacity:1;fill-rule:nonzero;stroke:none"
           d="m 656.824,452.148 c -4.038,0 -7.323,3.285 -7.323,7.324 v 170.704 c 0,4.038 3.285,7.324 7.323,7.324 h 170.705 c 4.038,0 7.323,-3.286 7.323,-7.324 V 459.472 c 0,-4.039 -3.285,-7.324 -7.323,-7.324 z" /><path
           id="path126"
           style="fill:#333333;fill-opacity:1;fill-rule:nonzero;stroke:none"
           d="M 827.529,641.843 H 656.825 c -6.444,0 -11.668,-5.224 -11.668,-11.668 V 459.471 c 0,-6.444 5.224,-11.668 11.668,-11.668 h 170.704 c 6.444,0 11.668,5.224 11.668,11.668 v 170.704 c 0,6.444 -5.224,11.668 -11.668,11.668 m 0,-8.688 c 1.643,0 2.979,-1.337 2.979,-2.98 V 459.471 c 0,-1.643 -1.336,-2.98 -2.979,-2.98 H 656.825 c -1.643,0 -2.98,1.337 -2.98,2.98 v 170.704 c 0,1.643 1.337,2.98 2.98,2.98 z" /><path
           id="path128"
           style="fill:#ffffff;fill-opacity:1;fill-rule:nonzero;stroke:none"
           d="m 656.824,659.148 c -4.038,0 -7.323,3.285 -7.323,7.324 v 170.704 c 0,4.038 3.285,7.324 7.323,7.324 h 170.705 c 4.038,0 7.323,-3.286 7.323,-7.324 V 666.472 c 0,-4.039 -3.285,-7.324 -7.323,-7.324 z" /><path
           id="path130"
           style="fill:#333333;fill-opacity:1;fill-rule:nonzero;stroke:none"
           d="M 827.529,848.843 H 656.825 c -6.444,0 -11.668,-5.224 -11.668,-11.668 V 666.471 c 0,-6.444 5.224,-11.668 11.668,-11.668 h 170.704 c 6.444,0 11.668,5.224 11.668,11.668 v 170.704 c 0,6.444 -5.224,11.668 -11.668,11.668 m 0,-8.688 c 1.643,0 2.979,-1.337 2.979,-2.98 V 666.471 c 0,-1.643 -1.336,-2.98 -2.979,-2.98 H 656.825 c -1.643,0 -2.98,1.337 -2.98,2.98 v 170.704 c 0,1.643 1.337,2.98 2.98,2.98 z" /><g
           transform="translate(51.3018,729.323)"
           id="g132"><text
             id="text136"
             style="font-variant:normal;font-weight:bold;font-size:70px;font-family:Arial;-inkscape-font-specification:Arial-BoldMT;writing-mode:lr-tb;fill:#000000;fill-opacity:1;fill-rule:nonzero;stroke:none"
             transform="scale(1,-1)"><tspan
               id="tspan134"
               y="0"
               x="0 58.317001 101.08">Mod</tspan></text>
</g><g
           transform="matrix(0.993354,0,0,1.0066,-13.6071,872.887)"
           id="g138"><g
             transform="translate(67.8637,-761.678)"
             id="g140"><text
               id="text144"
               style="font-variant:normal;font-weight:bold;font-size:69.54090118px;font-family:Arial;-inkscape-font-specification:Arial-BoldMT;writing-mode:lr-tb;fill:#000000;fill-opacity:1;fill-rule:nonzero;stroke:none"
               transform="scale(1,-1)"><tspan
                 id="tspan142"
                 y="0"
                 x="0 50.229393 69.55481 108.24041">Hist</tspan></text>
</g></g><g
           transform="translate(299.662,317.303)"
           id="g146"><text
             id="text150"
             style="font-variant:normal;font-weight:bold;font-size:70px;font-family:Arial;-inkscape-font-specification:Arial-BoldMT;writing-mode:lr-tb;fill:#000000;fill-opacity:1;fill-rule:nonzero;stroke:none"
             transform="scale(1,-1)"><tspan
               id="tspan148"
               y="0"
               x="0 19.459999">IV</tspan></text>
</g><g
           transform="translate(318.333,106.18)"
           id="g152"><text
             id="text156"
             style="font-variant:normal;font-weight:bold;font-size:70px;font-family:Arial;-inkscape-font-specification:Arial-BoldMT;writing-mode:lr-tb;fill:#000000;fill-opacity:1;fill-rule:nonzero;stroke:none"
             transform="scale(1,-1)"><tspan
               id="tspan154"
               y="0"
               x="0">I</tspan></text>
</g><g
           transform="translate(308.692,524.293)"
           id="g158"><text
             id="text162"
             style="font-variant:normal;font-weight:bold;font-size:70px;font-family:Arial;-inkscape-font-specification:Arial-BoldMT;writing-mode:lr-tb;fill:#000000;fill-opacity:1;fill-rule:nonzero;stroke:none"
             transform="scale(1,-1)"><tspan
               id="tspan160"
               y="0"
               x="0">V</tspan></text>
</g><g
           transform="translate(312.682,730.303)"
           id="g164"><text
             id="text168"
             style="font-variant:normal;font-weight:bold;font-size:70px;font-family:Arial;-inkscape-font-specification:Arial-BoldMT;writing-mode:lr-tb;fill:#000000;fill-opacity:1;fill-rule:nonzero;stroke:none"
             transform="scale(1,-1)"><tspan
               id="tspan166"
               y="0"
               x="0 19.459999">II</tspan></text>
</g><g
           transform="translate(505.672,728.273)"
           id="g170"><text
             id="text174"
             style="font-variant:normal;font-weight:bold;font-size:70px;font-family:Arial;-inkscape-font-specification:Arial-BoldMT;writing-mode:lr-tb;fill:#000000;fill-opacity:1;fill-rule:nonzero;stroke:none"
             transform="scale(1,-1)"><tspan
               id="tspan172"
               y="0"
               x="0 38.933998 58.380001">vii</tspan></text>
</g><g
           transform="translate(509.662,524.293)"
           id="g176"><text
             id="text180"
             style="font-variant:normal;font-weight:bold;font-size:70px;font-family:Arial;-inkscape-font-specification:Arial-BoldMT;writing-mode:lr-tb;fill:#000000;fill-opacity:1;fill-rule:nonzero;stroke:none"
             transform="scale(1,-1)"><tspan
               id="tspan178"
               y="0"
               x="0 19.459999 38.919998">iii</tspan></text>
</g><g
           transform="translate(500.758,108.014)"
           id="g182"><text
             id="text186"
             style="font-variant:normal;font-weight:bold;font-size:70px;font-family:Arial;-inkscape-font-specification:Arial-BoldMT;writing-mode:lr-tb;fill:#000000;fill-opacity:1;fill-rule:nonzero;stroke:none"
             transform="scale(1,-1)"><tspan
               id="tspan184"
               y="0"
               x="0 38.933998">vi</tspan></text>
</g><g
           transform="matrix(0.93541,0,0,1.06066,31.637,866.467)"
           id="g188"><g
             transform="translate(676.653,-522.029)"
             id="g190"><text
               id="text194"
               style="font-variant:normal;font-weight:bold;font-size:65.99639893px;font-family:Arial;-inkscape-font-specification:Arial-BoldMT;writing-mode:lr-tb;fill:#000000;fill-opacity:1;fill-rule:nonzero;stroke:none"
               transform="scale(1,-1)"><tspan
                 id="tspan192"
                 y="0"
                 x="0">M</tspan></text>
</g></g><g
           transform="matrix(0.93541,0,0,1.06066,37.7105,866.467)"
           id="g196"><g
             transform="translate(725.137,-522.029)"
             id="g198"><text
               id="text202"
               style="font-variant:normal;font-weight:bold;font-size:51.85430145px;font-family:Arial;-inkscape-font-specification:Arial-BoldMT;writing-mode:lr-tb;fill:#000000;fill-opacity:1;fill-rule:nonzero;stroke:none"
               transform="scale(1,-1)"><tspan
                 id="tspan200"
                 y="0"
                 x="0">↔</tspan></text>
</g></g><g
           transform="matrix(0.93541,0,0,1.06066,43.4378,866.467)"
           id="g204"><g
             transform="translate(770.868,-522.029)"
             id="g206"><text
               id="text210"
               style="font-variant:normal;font-weight:bold;font-size:65.99639893px;font-family:Arial;-inkscape-font-specification:Arial-BoldMT;writing-mode:lr-tb;fill:#000000;fill-opacity:1;fill-rule:nonzero;stroke:none"
               transform="scale(1,-1)"><tspan
                 id="tspan208"
                 y="0"
                 x="0">m</tspan></text>
</g></g><g
           transform="translate(722.865,108.014)"
           id="g212"><text
             id="text216"
             style="font-variant:normal;font-weight:bold;font-size:70px;font-family:Arial;-inkscape-font-specification:Arial-BoldMT;writing-mode:lr-tb;fill:#000000;fill-opacity:1;fill-rule:nonzero;stroke:none"
             transform="scale(1,-1)"><tspan
               id="tspan214"
               y="0"
               x="0">4</tspan></text>
</g><g
           transform="translate(722.899,727.094)"
           id="g218"><text
             id="text222"
             style="font-variant:normal;font-weight:bold;font-size:70px;font-family:Arial;-inkscape-font-specification:Arial-BoldMT;writing-mode:lr-tb;fill:#000000;fill-opacity:1;fill-rule:nonzero;stroke:none"
             transform="scale(1,-1)"><tspan
               id="tspan220"
               y="0"
               x="0">3</tspan></text>
</g><g
           transform="translate(724.779,519.667)"
           id="g224"><text
             id="text228"
             style="font-variant:normal;font-weight:bold;font-size:70px;font-family:Arial;-inkscape-font-specification:Arial-BoldMT;writing-mode:lr-tb;fill:#000000;fill-opacity:1;fill-rule:nonzero;stroke:none"
             transform="scale(1,-1)"><tspan
               id="tspan226"
               y="0"
               x="0">2</tspan></text>
</g><g
           transform="translate(516.662,317.303)"
           id="g230"><text
             id="text234"
             style="font-variant:normal;font-weight:bold;font-size:70px;font-family:Arial;-inkscape-font-specification:Arial-BoldMT;writing-mode:lr-tb;fill:#000000;fill-opacity:1;fill-rule:nonzero;stroke:none"
             transform="scale(1,-1)"><tspan
               id="tspan232"
               y="0"
               x="0 19.459999">ii</tspan></text>
</g><g
           transform="translate(79.3018,524.293)"
           id="g236"><text
             id="text240"
             style="font-variant:normal;font-weight:bold;font-size:70px;font-family:Arial;-inkscape-font-specification:Arial-BoldMT;writing-mode:lr-tb;fill:#000000;fill-opacity:1;fill-rule:nonzero;stroke:none"
             transform="scale(1,-1)"><tspan
               id="tspan238"
               y="0"
               x="0 40.880001">++</tspan></text>
</g><g
           transform="matrix(0.93541,0,0,1.06066,60.0418,873.334)"
           id="g242"><g
             transform="translate(41.7675,-522.01)"
             id="g244"><text
               id="text248"
               style="font-variant:normal;font-weight:bold;font-size:65.99639893px;font-family:Arial;-inkscape-font-specification:Arial-BoldMT;writing-mode:lr-tb;fill:#000000;fill-opacity:1;fill-rule:nonzero;stroke:none"
               transform="scale(1,-1)"><tspan
                 id="tspan246"
                 y="0"
                 x="0 21.9834">--</tspan></text>
</g></g></g></g></g></svg>